<?xml version="1.0" encoding="UTF-8"?>
<svg width="188px" height="88px" viewBox="0 0 188 88" version="1.1" xmlns="http://www.w3.org/2000/svg" xmlns:xlink="http://www.w3.org/1999/xlink">
    <title>按钮</title>
    <defs>
        <linearGradient x1="50%" y1="0%" x2="50%" y2="100%" id="linearGradient-1">
            <stop stop-color="#0D2B3A" offset="0%"></stop>
            <stop stop-color="#041823" offset="100%"></stop>
        </linearGradient>
    </defs>
    <g id="组件" stroke="none" stroke-width="1" fill="none" fill-rule="evenodd">
        <g id="侧导航" transform="translate(-10.000000, -680.000000)">
            <g id="按钮" transform="translate(10.000000, 680.000000)">
                <rect id="矩形" fill="url(#linearGradient-1)" opacity="0.745548692" x="0" y="0" width="188" height="88" rx="4"></rect>
                <text id="钉钉扫码" font-family="PingFang-SC-Bold, PingFang SC" font-size="12" font-weight="bold" line-spacing="20" fill="#9BC8DF">
                    <tspan x="32" y="19">钉钉扫码</tspan>
                </text>
                <g id="品牌标识-钉钉" transform="translate(10.000000, 7.000000)" fill-rule="nonzero">
                    <rect id="矩形" fill="#000000" opacity="0" x="0" y="0" width="18" height="18"></rect>
                    <path d="M8.9420625,1.15280859 C4.57720312,1.15280859 1.03876172,4.69123242 1.03876172,9.05610938 C1.03876172,13.4209863 4.57720312,16.9594102 8.9420625,16.9594102 C13.3069219,16.9594102 16.8453633,13.4209688 16.8453633,9.05610938 C16.8453633,4.69125 13.3069395,1.15280859 8.9420625,1.15280859 Z M12.6048164,8.00388281 C12.5883457,8.07317578 12.5478457,8.17470703 12.490998,8.29731445 L12.4922637,8.29731445 L12.4857246,8.30866992 C12.1540605,9.01833398 11.2880566,10.4101348 11.2880566,10.4101348 C11.2880566,10.4101348 11.2868789,10.4068828 11.2835391,10.401416 L11.0304668,10.841959 L12.2500723,10.841959 L9.92075977,13.9394004 L10.4495625,11.8322754 L9.48986719,11.8322754 L9.82330664,10.438875 C9.55348242,10.5039668 9.23470312,10.5933867 8.8569668,10.714834 C8.8569668,10.714834 8.34611133,11.0140488 7.38525586,10.1392559 C7.38525586,10.1392559 6.73727344,9.56840625 7.11298828,9.42570703 C7.27279102,9.36504492 7.88872852,9.28803516 8.37341016,9.22253906 C9.02837109,9.13398047 9.43129688,9.08709961 9.43129688,9.08709961 C9.43129688,9.08709961 7.41204492,9.11733398 6.93302344,9.04192383 C6.45393164,8.96661914 5.8462207,8.16723633 5.71679297,7.46455078 C5.71679297,7.46455078 5.51657813,7.07874609 6.14728125,7.26136523 C6.7779668,7.44400195 9.38881055,7.97227734 9.38881055,7.97227734 C9.38881055,7.97227734 5.99336719,6.93151172 5.76745313,6.6775957 C5.54148633,6.42366211 5.10247266,5.2912793 5.15963672,4.59550195 C5.15963672,4.59550195 5.18442188,4.42205859 5.36229492,4.4685 C5.36229492,4.4685 7.87248633,5.61554297 9.58890234,6.24345117 C11.3053359,6.87137695 12.7976133,7.19082422 12.6048164,8.00390039 L12.6048164,8.00388281 Z" id="形状" fill="#9BC8DF"></path>
                </g>
                <text id="公益培训-虚拟货币犯罪-研究中心链安学院" font-family="PingFang-SC-Heavy, PingFang SC" font-size="16" font-weight="600" line-spacing="16">
                    <tspan x="10" y="48" fill="#FFFFFF">公益培训</tspan>
                    <tspan x="75.152" y="48" font-family="PingFang-SC-Bold, PingFang SC" font-size="14" font-weight="bold" fill="#9BC8DF"></tspan>
                    <tspan x="11.152" y="64" font-family="PingFang-SC-Medium, PingFang SC" font-size="10" font-weight="400" line-spacing="14" fill="#9BC8DF">虚拟货币犯罪</tspan>
                    <tspan x="10.432" y="78" font-family="PingFang-SC-Medium, PingFang SC" font-size="10" font-weight="400" line-spacing="12" fill="#9BC8DF">研究中心链安学院</tspan>
                </text>
                <g id="编组" transform="translate(108.000000, 8.000000)" fill="#FFFFFF" fill-rule="nonzero">
                    <path d="M12.2926829,59.7073171 L12.2926829,72 L0,72 L0,59.7073171 L12.2926829,59.7073171 Z M17.5609756,63.2195122 L17.5609756,64.9756098 L19.3170732,64.9756098 L19.3170732,72 L14.0487805,72 L14.0487805,63.2195122 L17.5609756,63.2195122 Z M54.4390244,70.2439024 L54.4390244,72 L50.9268293,72 L50.9268293,70.2439024 L54.4390244,70.2439024 Z M63.2195122,68.4878049 L63.2195122,72 L59.7073171,72 L59.7073171,70.2439024 L61.4634146,70.2439024 L61.4634146,68.4878049 L63.2195122,68.4878049 Z M68.4878049,70.2439024 L68.4878049,72 L64.9756098,72 L64.9756098,70.2439024 L68.4878049,70.2439024 Z M43.902439,61.4634146 L43.902439,64.9756098 L42.1463415,64.9756098 L42.1463415,66.7317073 L40.3902439,66.7317073 L40.3902439,68.4878049 L42.1463415,68.4878049 L42.1463415,70.2439024 L45.6585366,70.2439024 L45.6585366,68.4878049 L43.902439,68.4878049 L43.902439,64.9756098 L45.6585366,64.9756098 L45.6585366,63.2195122 L47.4146341,63.2195122 L47.4146341,66.7317073 L49.1707317,66.7317073 L49.1707317,64.9756098 L50.9268293,64.9756098 L50.9268293,63.2195122 L52.6829268,63.2195122 L52.6829268,64.9756098 L54.4390244,64.9756098 L54.4390244,66.7317073 L50.9268293,66.7317073 L50.9268293,68.4878049 L47.4146341,68.4878049 L47.4146341,70.2439024 L49.1707317,70.2439024 L49.1707317,72 L38.6341463,72 L38.6341463,70.2439024 L35.1219512,70.2439024 L35.1219512,68.4878049 L38.6341463,68.4878049 L38.6341463,63.2195122 L42.1463415,63.2195122 L42.1463415,61.4634146 L43.902439,61.4634146 Z M29.8536585,47.4146341 L29.8536585,49.1707317 L31.6097561,49.1707317 L31.6097561,50.9268293 L35.1219512,50.9268293 L35.1219512,52.6829268 L29.8536585,52.6829268 L29.8536585,50.9268293 L26.3414634,50.9268293 L26.3414634,52.6829268 L29.8536585,52.6829268 L29.8536585,54.4390244 L28.097561,54.4390244 L28.097561,56.195122 L31.6097561,56.195122 L31.6097561,57.9512195 L33.3658537,57.9512195 L33.3658537,56.195122 L35.1219512,56.195122 L35.1219512,52.6829268 L36.8780488,52.6829268 L36.8780488,54.4390244 L42.1463415,54.4390244 L42.1463415,56.195122 L49.1707317,56.195122 L49.1707317,57.9512195 L42.1463415,57.9512195 L42.1463415,59.7073171 L40.3902439,59.7073171 L40.3902439,57.9512195 L38.6341463,57.9512195 L38.6341463,56.195122 L35.1219512,56.195122 L35.1219512,57.9512195 L36.8780488,57.9512195 L36.8780488,59.7073171 L31.6097561,59.7073171 L31.6097561,61.4634146 L29.8536585,61.4634146 L29.8536585,63.2195122 L31.6097561,63.2195122 L31.6097561,61.4634146 L33.3658537,61.4634146 L33.3658537,64.9756098 L31.6097561,64.9756098 L31.6097561,66.7317073 L29.8536585,66.7317073 L29.8536585,64.9756098 L24.5853659,64.9756098 L24.5853659,66.7317073 L29.8536585,66.7317073 L29.8536585,70.2439024 L33.3658537,70.2439024 L33.3658537,72 L28.097561,72 L28.097561,70.2439024 L24.5853659,70.2439024 L24.5853659,72 L22.8292683,72 L22.8292683,70.2439024 L24.5853659,70.2439024 L24.5853659,68.4878049 L22.8292683,68.4878049 L22.8292683,70.2439024 L21.0731707,70.2439024 L21.0731707,68.4878049 L22.8292683,68.4878049 L22.8292683,66.7317073 L21.0731707,66.7317073 L21.0731707,64.9756098 L24.5853659,64.9756098 L24.5853659,63.2195122 L26.3414634,63.2195122 L26.3414634,61.4634146 L24.5853659,61.4634146 L24.5853659,63.2195122 L21.0731707,63.2195122 L21.0731707,61.4634146 L22.8292683,61.4634146 L22.8292683,56.195122 L24.5853659,56.195122 L24.5853659,50.9268293 L26.3414634,50.9268293 L26.3414634,49.1707317 L28.097561,49.1707317 L28.097561,47.4146341 L29.8536585,47.4146341 Z M70.2439024,68.4878049 L70.2439024,70.2439024 L68.4878049,70.2439024 L68.4878049,68.4878049 L70.2439024,68.4878049 Z M66.7317073,52.6829268 L66.7317073,56.195122 L64.9756098,56.195122 L64.9756098,64.9756098 L57.9512195,64.9756098 L57.9512195,66.7317073 L61.4634146,66.7317073 L61.4634146,68.4878049 L57.9512195,68.4878049 L57.9512195,70.2439024 L54.4390244,70.2439024 L54.4390244,66.7317073 L56.195122,66.7317073 L56.195122,63.2195122 L54.4390244,63.2195122 L54.4390244,61.4634146 L50.9268293,61.4634146 L50.9268293,63.2195122 L49.1707317,63.2195122 L49.1707317,61.4634146 L45.6585366,61.4634146 L45.6585366,59.7073171 L49.1707317,59.7073171 L49.1707317,57.9512195 L50.9268293,57.9512195 L50.9268293,59.7073171 L52.6829268,59.7073171 L52.6829268,57.9512195 L54.4390244,57.9512195 L54.4390244,59.7073171 L56.195122,59.7073171 L56.195122,56.195122 L63.2195122,56.195122 L63.2195122,54.4390244 L64.9756098,54.4390244 L64.9756098,52.6829268 L66.7317073,52.6829268 Z M10.5365854,61.4634146 L1.75609756,61.4634146 L1.75609756,70.2439024 L10.5365854,70.2439024 L10.5365854,61.4634146 Z M8.7804878,63.2195122 L8.7804878,68.4878049 L3.51219512,68.4878049 L3.51219512,63.2195122 L8.7804878,63.2195122 Z M33.3658537,66.7317073 L33.3658537,68.4878049 L31.6097561,68.4878049 L31.6097561,66.7317073 L33.3658537,66.7317073 Z M64.9756098,66.7317073 L64.9756098,68.4878049 L63.2195122,68.4878049 L63.2195122,66.7317073 L64.9756098,66.7317073 Z M35.1219512,64.9756098 L35.1219512,66.7317073 L33.3658537,66.7317073 L33.3658537,64.9756098 L35.1219512,64.9756098 Z M72,66.7317073 L70.2439024,66.7317073 L70.2439024,64.9756098 L68.4878049,64.9756098 L68.4878049,66.7317073 L66.7317073,66.7317073 L66.7317073,63.2195122 L72,63.2195122 L72,66.7317073 Z M38.6341463,61.4634146 L38.6341463,63.2195122 L36.8780488,63.2195122 L36.8780488,64.9756098 L35.1219512,64.9756098 L35.1219512,61.4634146 L38.6341463,61.4634146 Z M63.2195122,57.9512195 L57.9512195,57.9512195 L57.9512195,63.2195122 L63.2195122,63.2195122 L63.2195122,57.9512195 Z M19.3170732,61.4634146 L19.3170732,63.2195122 L17.5609756,63.2195122 L17.5609756,61.4634146 L19.3170732,61.4634146 Z M22.8292683,52.6829268 L22.8292683,54.4390244 L21.0731707,54.4390244 L21.0731707,59.7073171 L15.804878,59.7073171 L15.804878,61.4634146 L14.0487805,61.4634146 L14.0487805,56.195122 L19.3170732,56.195122 L19.3170732,52.6829268 L22.8292683,52.6829268 Z M40.3902439,59.7073171 L40.3902439,61.4634146 L38.6341463,61.4634146 L38.6341463,59.7073171 L40.3902439,59.7073171 Z M61.4634146,59.7073171 L61.4634146,61.4634146 L59.7073171,61.4634146 L59.7073171,59.7073171 L61.4634146,59.7073171 Z M72,54.4390244 L72,59.7073171 L68.4878049,59.7073171 L68.4878049,61.4634146 L66.7317073,61.4634146 L66.7317073,57.9512195 L68.4878049,57.9512195 L68.4878049,56.195122 L70.2439024,56.195122 L70.2439024,54.4390244 L72,54.4390244 Z M26.3414634,57.9512195 L24.5853659,57.9512195 L24.5853659,59.7073171 L26.3414634,59.7073171 L26.3414634,57.9512195 Z M7.02439024,56.195122 L7.02439024,57.9512195 L5.26829268,57.9512195 L5.26829268,56.195122 L7.02439024,56.195122 Z M3.51219512,38.6341463 L3.51219512,40.3902439 L5.26829268,40.3902439 L5.26829268,38.6341463 L12.2926829,38.6341463 L12.2926829,40.3902439 L8.7804878,40.3902439 L8.7804878,42.1463415 L12.2926829,42.1463415 L12.2926829,40.3902439 L14.0487805,40.3902439 L14.0487805,42.1463415 L15.804878,42.1463415 L15.804878,43.902439 L14.0487805,43.902439 L14.0487805,47.4146341 L8.7804878,47.4146341 L8.7804878,49.1707317 L17.5609756,49.1707317 L17.5609756,52.6829268 L15.804878,52.6829268 L15.804878,54.4390244 L14.0487805,54.4390244 L14.0487805,52.6829268 L12.2926829,52.6829268 L12.2926829,54.4390244 L10.5365854,54.4390244 L10.5365854,56.195122 L12.2926829,56.195122 L12.2926829,57.9512195 L8.7804878,57.9512195 L8.7804878,52.6829268 L12.2926829,52.6829268 L12.2926829,50.9268293 L7.02439024,50.9268293 L7.02439024,52.6829268 L1.75609756,52.6829268 L1.75609756,57.9512195 L0,57.9512195 L0,49.1707317 L1.75609756,49.1707317 L1.75609756,50.9268293 L3.51219512,50.9268293 L3.51219512,49.1707317 L5.26829268,49.1707317 L5.26829268,47.4146341 L3.51219512,47.4146341 L3.51219512,49.1707317 L1.75609756,49.1707317 L1.75609756,43.902439 L3.51219512,43.902439 L3.51219512,42.1463415 L1.75609756,42.1463415 L1.75609756,43.902439 L0,43.902439 L0,42.1463415 L1.75609756,42.1463415 L1.75609756,38.6341463 L3.51219512,38.6341463 Z M52.6829268,56.195122 L52.6829268,57.9512195 L50.9268293,57.9512195 L50.9268293,56.195122 L52.6829268,56.195122 Z M5.26829268,54.4390244 L5.26829268,56.195122 L3.51219512,56.195122 L3.51219512,54.4390244 L5.26829268,54.4390244 Z M33.3658537,54.4390244 L33.3658537,56.195122 L31.6097561,56.195122 L31.6097561,54.4390244 L33.3658537,54.4390244 Z M56.195122,26.3414634 L56.195122,29.8536585 L61.4634146,29.8536585 L61.4634146,28.097561 L63.2195122,28.097561 L63.2195122,29.8536585 L64.9756098,29.8536585 L64.9756098,33.3658537 L66.7317073,33.3658537 L66.7317073,35.1219512 L68.4878049,35.1219512 L68.4878049,36.8780488 L66.7317073,36.8780488 L66.7317073,38.6341463 L63.2195122,38.6341463 L63.2195122,43.902439 L64.9756098,43.902439 L64.9756098,45.6585366 L63.2195122,45.6585366 L63.2195122,49.1707317 L59.7073171,49.1707317 L59.7073171,47.4146341 L57.9512195,47.4146341 L57.9512195,49.1707317 L54.4390244,49.1707317 L54.4390244,47.4146341 L56.195122,47.4146341 L56.195122,45.6585366 L54.4390244,45.6585366 L54.4390244,47.4146341 L49.1707317,47.4146341 L49.1707317,50.9268293 L50.9268293,50.9268293 L50.9268293,49.1707317 L52.6829268,49.1707317 L52.6829268,50.9268293 L54.4390244,50.9268293 L54.4390244,52.6829268 L52.6829268,52.6829268 L52.6829268,54.4390244 L47.4146341,54.4390244 L47.4146341,52.6829268 L45.6585366,52.6829268 L45.6585366,54.4390244 L42.1463415,54.4390244 L42.1463415,52.6829268 L43.902439,52.6829268 L43.902439,50.9268293 L42.1463415,50.9268293 L42.1463415,52.6829268 L40.3902439,52.6829268 L40.3902439,50.9268293 L38.6341463,50.9268293 L38.6341463,52.6829268 L36.8780488,52.6829268 L36.8780488,50.9268293 L38.6341463,50.9268293 L38.6341463,49.1707317 L36.8780488,49.1707317 L36.8780488,50.9268293 L35.1219512,50.9268293 L35.1219512,45.6585366 L36.8780488,45.6585366 L36.8780488,43.902439 L38.6341463,43.902439 L38.6341463,42.1463415 L36.8780488,42.1463415 L36.8780488,43.902439 L35.1219512,43.902439 L35.1219512,42.1463415 L36.8780488,42.1463415 L36.8780488,40.3902439 L38.6341463,40.3902439 L38.6341463,38.6341463 L40.3902439,38.6341463 L40.3902439,40.3902439 L42.1463415,40.3902439 L42.1463415,42.1463415 L45.6585366,42.1463415 L45.6585366,40.3902439 L43.902439,40.3902439 L43.902439,35.1219512 L45.6585366,35.1219512 L45.6585366,33.3658537 L43.902439,33.3658537 L43.902439,28.097561 L45.6585366,28.097561 L45.6585366,31.6097561 L49.1707317,31.6097561 L49.1707317,28.097561 L52.6829268,28.097561 L52.6829268,26.3414634 L56.195122,26.3414634 Z M59.7073171,50.9268293 L59.7073171,52.6829268 L61.4634146,52.6829268 L61.4634146,50.9268293 L64.9756098,50.9268293 L64.9756098,52.6829268 L63.2195122,52.6829268 L63.2195122,54.4390244 L56.195122,54.4390244 L56.195122,50.9268293 L59.7073171,50.9268293 Z M72,47.4146341 L72,52.6829268 L68.4878049,52.6829268 L68.4878049,50.9268293 L70.2439024,50.9268293 L70.2439024,49.1707317 L68.4878049,49.1707317 L68.4878049,50.9268293 L64.9756098,50.9268293 L64.9756098,49.1707317 L68.4878049,49.1707317 L68.4878049,47.4146341 L72,47.4146341 Z M22.8292683,45.6585366 L22.8292683,50.9268293 L21.0731707,50.9268293 L21.0731707,49.1707317 L17.5609756,49.1707317 L17.5609756,47.4146341 L21.0731707,47.4146341 L21.0731707,45.6585366 L22.8292683,45.6585366 Z M26.3414634,47.4146341 L26.3414634,49.1707317 L24.5853659,49.1707317 L24.5853659,47.4146341 L26.3414634,47.4146341 Z M61.4634146,31.6097561 L54.4390244,31.6097561 L54.4390244,35.1219512 L52.6829268,35.1219512 L52.6829268,33.3658537 L47.4146341,33.3658537 L47.4146341,35.1219512 L49.1707317,35.1219512 L49.1707317,36.8780488 L50.9268293,36.8780488 L50.9268293,38.6341463 L49.1707317,38.6341463 L49.1707317,40.3902439 L47.4146341,40.3902439 L47.4146341,42.1463415 L49.1707317,42.1463415 L49.1707317,43.902439 L42.1463415,43.902439 L42.1463415,45.6585366 L40.3902439,45.6585366 L40.3902439,43.902439 L38.6341463,43.902439 L38.6341463,45.6585366 L40.3902439,45.6585366 L40.3902439,47.4146341 L42.1463415,47.4146341 L42.1463415,49.1707317 L47.4146341,49.1707317 L47.4146341,47.4146341 L45.6585366,47.4146341 L45.6585366,45.6585366 L49.1707317,45.6585366 L49.1707317,43.902439 L50.9268293,43.902439 L50.9268293,45.6585366 L52.6829268,45.6585366 L52.6829268,43.902439 L56.195122,43.902439 L56.195122,42.1463415 L57.9512195,42.1463415 L57.9512195,43.902439 L61.4634146,43.902439 L61.4634146,38.6341463 L54.4390244,38.6341463 L54.4390244,40.3902439 L50.9268293,40.3902439 L50.9268293,38.6341463 L52.6829268,38.6341463 L52.6829268,36.8780488 L61.4634146,36.8780488 L61.4634146,35.1219512 L63.2195122,35.1219512 L63.2195122,33.3658537 L61.4634146,33.3658537 L61.4634146,35.1219512 L56.195122,35.1219512 L56.195122,33.3658537 L61.4634146,33.3658537 L61.4634146,31.6097561 Z M19.3170732,42.1463415 L19.3170732,45.6585366 L17.5609756,45.6585366 L17.5609756,47.4146341 L15.804878,47.4146341 L15.804878,43.902439 L17.5609756,43.902439 L17.5609756,42.1463415 L19.3170732,42.1463415 Z M68.4878049,45.6585366 L68.4878049,47.4146341 L64.9756098,47.4146341 L64.9756098,45.6585366 L68.4878049,45.6585366 Z M24.5853659,29.8536585 L24.5853659,31.6097561 L28.097561,31.6097561 L28.097561,29.8536585 L29.8536585,29.8536585 L29.8536585,31.6097561 L31.6097561,31.6097561 L31.6097561,33.3658537 L28.097561,33.3658537 L28.097561,38.6341463 L29.8536585,38.6341463 L29.8536585,40.3902439 L28.097561,40.3902439 L28.097561,43.902439 L29.8536585,43.902439 L29.8536585,42.1463415 L33.3658537,42.1463415 L33.3658537,43.902439 L35.1219512,43.902439 L35.1219512,45.6585366 L33.3658537,45.6585366 L33.3658537,47.4146341 L31.6097561,47.4146341 L31.6097561,45.6585366 L28.097561,45.6585366 L28.097561,47.4146341 L26.3414634,47.4146341 L26.3414634,45.6585366 L24.5853659,45.6585366 L24.5853659,43.902439 L26.3414634,43.902439 L26.3414634,40.3902439 L24.5853659,40.3902439 L24.5853659,38.6341463 L26.3414634,38.6341463 L26.3414634,36.8780488 L24.5853659,36.8780488 L24.5853659,35.1219512 L26.3414634,35.1219512 L26.3414634,33.3658537 L24.5853659,33.3658537 L24.5853659,35.1219512 L22.8292683,35.1219512 L22.8292683,29.8536585 L24.5853659,29.8536585 Z M43.902439,45.6585366 L43.902439,47.4146341 L42.1463415,47.4146341 L42.1463415,45.6585366 L43.902439,45.6585366 Z M70.2439024,40.3902439 L70.2439024,42.1463415 L72,42.1463415 L72,45.6585366 L68.4878049,45.6585366 L68.4878049,40.3902439 L70.2439024,40.3902439 Z M12.2926829,43.902439 L8.7804878,43.902439 L8.7804878,45.6585366 L12.2926829,45.6585366 L12.2926829,43.902439 Z M7.02439024,42.1463415 L5.26829268,42.1463415 L5.26829268,43.902439 L7.02439024,43.902439 L7.02439024,42.1463415 Z M22.8292683,40.3902439 L22.8292683,42.1463415 L24.5853659,42.1463415 L24.5853659,43.902439 L21.0731707,43.902439 L21.0731707,40.3902439 L22.8292683,40.3902439 Z M52.6829268,42.1463415 L52.6829268,43.902439 L50.9268293,43.902439 L50.9268293,42.1463415 L52.6829268,42.1463415 Z M66.7317073,40.3902439 L66.7317073,42.1463415 L64.9756098,42.1463415 L64.9756098,40.3902439 L66.7317073,40.3902439 Z M50.9268293,40.3902439 L50.9268293,42.1463415 L49.1707317,42.1463415 L49.1707317,40.3902439 L50.9268293,40.3902439 Z M56.195122,40.3902439 L56.195122,42.1463415 L54.4390244,42.1463415 L54.4390244,40.3902439 L56.195122,40.3902439 Z M59.7073171,40.3902439 L59.7073171,42.1463415 L57.9512195,42.1463415 L57.9512195,40.3902439 L59.7073171,40.3902439 Z M31.6097561,21.0731707 L31.6097561,22.8292683 L38.6341463,22.8292683 L38.6341463,28.097561 L36.8780488,28.097561 L36.8780488,31.6097561 L38.6341463,31.6097561 L38.6341463,29.8536585 L40.3902439,29.8536585 L40.3902439,26.3414634 L42.1463415,26.3414634 L42.1463415,31.6097561 L40.3902439,31.6097561 L40.3902439,33.3658537 L42.1463415,33.3658537 L42.1463415,35.1219512 L40.3902439,35.1219512 L40.3902439,36.8780488 L38.6341463,36.8780488 L38.6341463,35.1219512 L35.1219512,35.1219512 L35.1219512,38.6341463 L33.3658537,38.6341463 L33.3658537,40.3902439 L31.6097561,40.3902439 L31.6097561,36.8780488 L33.3658537,36.8780488 L33.3658537,35.1219512 L35.1219512,35.1219512 L35.1219512,31.6097561 L33.3658537,31.6097561 L33.3658537,29.8536585 L35.1219512,29.8536585 L35.1219512,28.097561 L33.3658537,28.097561 L33.3658537,29.8536585 L29.8536585,29.8536585 L29.8536585,28.097561 L33.3658537,28.097561 L33.3658537,26.3414634 L36.8780488,26.3414634 L36.8780488,24.5853659 L33.3658537,24.5853659 L33.3658537,26.3414634 L29.8536585,26.3414634 L29.8536585,24.5853659 L26.3414634,24.5853659 L26.3414634,29.8536585 L24.5853659,29.8536585 L24.5853659,24.5853659 L22.8292683,24.5853659 L22.8292683,26.3414634 L21.0731707,26.3414634 L21.0731707,31.6097561 L19.3170732,31.6097561 L19.3170732,33.3658537 L21.0731707,33.3658537 L21.0731707,36.8780488 L19.3170732,36.8780488 L19.3170732,40.3902439 L17.5609756,40.3902439 L17.5609756,38.6341463 L15.804878,38.6341463 L15.804878,36.8780488 L17.5609756,36.8780488 L17.5609756,35.1219512 L12.2926829,35.1219512 L12.2926829,36.8780488 L10.5365854,36.8780488 L10.5365854,35.1219512 L12.2926829,35.1219512 L12.2926829,33.3658537 L10.5365854,33.3658537 L10.5365854,31.6097561 L12.2926829,31.6097561 L12.2926829,29.8536585 L14.0487805,29.8536585 L14.0487805,31.6097561 L15.804878,31.6097561 L15.804878,29.8536585 L19.3170732,29.8536585 L19.3170732,24.5853659 L22.8292683,24.5853659 L22.8292683,22.8292683 L29.8536585,22.8292683 L29.8536585,21.0731707 L31.6097561,21.0731707 Z M68.4878049,38.6341463 L68.4878049,40.3902439 L66.7317073,40.3902439 L66.7317073,38.6341463 L68.4878049,38.6341463 Z M36.8780488,38.6341463 L36.8780488,40.3902439 L35.1219512,40.3902439 L35.1219512,38.6341463 L36.8780488,38.6341463 Z M47.4146341,36.8780488 L45.6585366,36.8780488 L45.6585366,38.6341463 L47.4146341,38.6341463 L47.4146341,36.8780488 Z M5.26829268,36.8780488 L5.26829268,38.6341463 L3.51219512,38.6341463 L3.51219512,36.8780488 L5.26829268,36.8780488 Z M72,33.3658537 L72,38.6341463 L70.2439024,38.6341463 L70.2439024,33.3658537 L72,33.3658537 Z M22.8292683,36.8780488 L22.8292683,38.6341463 L21.0731707,38.6341463 L21.0731707,36.8780488 L22.8292683,36.8780488 Z M14.0487805,36.8780488 L14.0487805,38.6341463 L12.2926829,38.6341463 L12.2926829,36.8780488 L14.0487805,36.8780488 Z M31.6097561,35.1219512 L31.6097561,36.8780488 L29.8536585,36.8780488 L29.8536585,35.1219512 L31.6097561,35.1219512 Z M1.75609756,35.1219512 L1.75609756,36.8780488 L0,36.8780488 L0,35.1219512 L1.75609756,35.1219512 Z M52.6829268,35.1219512 L52.6829268,36.8780488 L50.9268293,36.8780488 L50.9268293,35.1219512 L52.6829268,35.1219512 Z M8.7804878,31.6097561 L8.7804878,33.3658537 L10.5365854,33.3658537 L10.5365854,35.1219512 L8.7804878,35.1219512 L8.7804878,36.8780488 L5.26829268,36.8780488 L5.26829268,33.3658537 L7.02439024,33.3658537 L7.02439024,31.6097561 L8.7804878,31.6097561 Z M70.2439024,31.6097561 L70.2439024,33.3658537 L68.4878049,33.3658537 L68.4878049,31.6097561 L70.2439024,31.6097561 Z M1.75609756,31.6097561 L1.75609756,33.3658537 L0,33.3658537 L0,31.6097561 L1.75609756,31.6097561 Z M15.804878,14.0487805 L15.804878,15.804878 L14.0487805,15.804878 L14.0487805,21.0731707 L12.2926829,21.0731707 L12.2926829,19.3170732 L10.5365854,19.3170732 L10.5365854,21.0731707 L12.2926829,21.0731707 L12.2926829,22.8292683 L10.5365854,22.8292683 L10.5365854,24.5853659 L12.2926829,24.5853659 L12.2926829,26.3414634 L10.5365854,26.3414634 L10.5365854,28.097561 L5.26829268,28.097561 L5.26829268,29.8536585 L7.02439024,29.8536585 L7.02439024,31.6097561 L1.75609756,31.6097561 L1.75609756,28.097561 L0,28.097561 L0,26.3414634 L1.75609756,26.3414634 L1.75609756,22.8292683 L3.51219512,22.8292683 L3.51219512,26.3414634 L5.26829268,26.3414634 L5.26829268,21.0731707 L8.7804878,21.0731707 L8.7804878,19.3170732 L7.02439024,19.3170732 L7.02439024,17.5609756 L12.2926829,17.5609756 L12.2926829,15.804878 L10.5365854,15.804878 L10.5365854,14.0487805 L15.804878,14.0487805 Z M72,29.8536585 L72,31.6097561 L70.2439024,31.6097561 L70.2439024,29.8536585 L72,29.8536585 Z M54.4390244,28.097561 L52.6829268,28.097561 L52.6829268,29.8536585 L50.9268293,29.8536585 L50.9268293,31.6097561 L52.6829268,31.6097561 L52.6829268,29.8536585 L54.4390244,29.8536585 L54.4390244,28.097561 Z M68.4878049,28.097561 L68.4878049,29.8536585 L64.9756098,29.8536585 L64.9756098,28.097561 L68.4878049,28.097561 Z M15.804878,28.097561 L15.804878,29.8536585 L14.0487805,29.8536585 L14.0487805,28.097561 L15.804878,28.097561 Z M12.2926829,28.097561 L12.2926829,29.8536585 L10.5365854,29.8536585 L10.5365854,28.097561 L12.2926829,28.097561 Z M29.8536585,26.3414634 L29.8536585,28.097561 L28.097561,28.097561 L28.097561,26.3414634 L29.8536585,26.3414634 Z M66.7317073,19.3170732 L66.7317073,21.0731707 L68.4878049,21.0731707 L68.4878049,22.8292683 L64.9756098,22.8292683 L64.9756098,21.0731707 L63.2195122,21.0731707 L63.2195122,22.8292683 L64.9756098,22.8292683 L64.9756098,24.5853659 L68.4878049,24.5853659 L68.4878049,26.3414634 L64.9756098,26.3414634 L64.9756098,28.097561 L63.2195122,28.097561 L63.2195122,24.5853659 L61.4634146,24.5853659 L61.4634146,28.097561 L57.9512195,28.097561 L57.9512195,26.3414634 L59.7073171,26.3414634 L59.7073171,24.5853659 L61.4634146,24.5853659 L61.4634146,21.0731707 L63.2195122,21.0731707 L63.2195122,19.3170732 L66.7317073,19.3170732 Z M70.2439024,26.3414634 L70.2439024,28.097561 L68.4878049,28.097561 L68.4878049,26.3414634 L70.2439024,26.3414634 Z M8.7804878,22.8292683 L7.02439024,22.8292683 L7.02439024,26.3414634 L8.7804878,26.3414634 L8.7804878,22.8292683 Z M17.5609756,24.5853659 L17.5609756,26.3414634 L14.0487805,26.3414634 L14.0487805,24.5853659 L17.5609756,24.5853659 Z M42.1463415,0 L42.1463415,1.75609756 L40.3902439,1.75609756 L40.3902439,3.51219512 L42.1463415,3.51219512 L42.1463415,5.26829268 L45.6585366,5.26829268 L45.6585366,8.7804878 L50.9268293,8.7804878 L50.9268293,7.02439024 L54.4390244,7.02439024 L54.4390244,5.26829268 L56.195122,5.26829268 L56.195122,3.51219512 L57.9512195,3.51219512 L57.9512195,14.0487805 L56.195122,14.0487805 L56.195122,8.7804878 L54.4390244,8.7804878 L54.4390244,12.2926829 L52.6829268,12.2926829 L52.6829268,10.5365854 L50.9268293,10.5365854 L50.9268293,14.0487805 L49.1707317,14.0487805 L49.1707317,10.5365854 L47.4146341,10.5365854 L47.4146341,14.0487805 L49.1707317,14.0487805 L49.1707317,15.804878 L42.1463415,15.804878 L42.1463415,14.0487805 L40.3902439,14.0487805 L40.3902439,15.804878 L42.1463415,15.804878 L42.1463415,17.5609756 L40.3902439,17.5609756 L40.3902439,19.3170732 L42.1463415,19.3170732 L42.1463415,17.5609756 L49.1707317,17.5609756 L49.1707317,19.3170732 L50.9268293,19.3170732 L50.9268293,21.0731707 L52.6829268,21.0731707 L52.6829268,22.8292683 L59.7073171,22.8292683 L59.7073171,24.5853659 L52.6829268,24.5853659 L52.6829268,26.3414634 L43.902439,26.3414634 L43.902439,22.8292683 L45.6585366,22.8292683 L45.6585366,21.0731707 L47.4146341,21.0731707 L47.4146341,19.3170732 L43.902439,19.3170732 L43.902439,22.8292683 L42.1463415,22.8292683 L42.1463415,21.0731707 L40.3902439,21.0731707 L40.3902439,22.8292683 L38.6341463,22.8292683 L38.6341463,21.0731707 L33.3658537,21.0731707 L33.3658537,19.3170732 L36.8780488,19.3170732 L36.8780488,17.5609756 L38.6341463,17.5609756 L38.6341463,14.0487805 L36.8780488,14.0487805 L36.8780488,15.804878 L35.1219512,15.804878 L35.1219512,17.5609756 L33.3658537,17.5609756 L33.3658537,19.3170732 L31.6097561,19.3170732 L31.6097561,17.5609756 L29.8536585,17.5609756 L29.8536585,21.0731707 L28.097561,21.0731707 L28.097561,19.3170732 L26.3414634,19.3170732 L26.3414634,21.0731707 L24.5853659,21.0731707 L24.5853659,19.3170732 L26.3414634,19.3170732 L26.3414634,17.5609756 L28.097561,17.5609756 L28.097561,15.804878 L22.8292683,15.804878 L22.8292683,19.3170732 L17.5609756,19.3170732 L17.5609756,22.8292683 L14.0487805,22.8292683 L14.0487805,21.0731707 L15.804878,21.0731707 L15.804878,17.5609756 L17.5609756,17.5609756 L17.5609756,14.0487805 L19.3170732,14.0487805 L19.3170732,17.5609756 L21.0731707,17.5609756 L21.0731707,15.804878 L22.8292683,15.804878 L22.8292683,14.0487805 L24.5853659,14.0487805 L24.5853659,10.5365854 L22.8292683,10.5365854 L22.8292683,14.0487805 L21.0731707,14.0487805 L21.0731707,8.7804878 L26.3414634,8.7804878 L26.3414634,7.02439024 L24.5853659,7.02439024 L24.5853659,5.26829268 L31.6097561,5.26829268 L31.6097561,7.02439024 L35.1219512,7.02439024 L35.1219512,5.26829268 L36.8780488,5.26829268 L36.8780488,3.51219512 L38.6341463,3.51219512 L38.6341463,0 L42.1463415,0 Z M42.1463415,22.8292683 L42.1463415,24.5853659 L40.3902439,24.5853659 L40.3902439,22.8292683 L42.1463415,22.8292683 Z M72,22.8292683 L72,24.5853659 L70.2439024,24.5853659 L70.2439024,22.8292683 L72,22.8292683 Z M19.3170732,22.8292683 L19.3170732,24.5853659 L17.5609756,24.5853659 L17.5609756,22.8292683 L19.3170732,22.8292683 Z M49.1707317,22.8292683 L47.4146341,22.8292683 L47.4146341,24.5853659 L49.1707317,24.5853659 L49.1707317,22.8292683 Z M22.8292683,21.0731707 L22.8292683,22.8292683 L19.3170732,22.8292683 L19.3170732,21.0731707 L22.8292683,21.0731707 Z M8.7804878,14.0487805 L8.7804878,15.804878 L5.26829268,15.804878 L5.26829268,21.0731707 L3.51219512,21.0731707 L3.51219512,19.3170732 L1.75609756,19.3170732 L1.75609756,21.0731707 L0,21.0731707 L0,19.3170732 L1.75609756,19.3170732 L1.75609756,15.804878 L0,15.804878 L0,14.0487805 L8.7804878,14.0487805 Z M56.195122,14.0487805 L56.195122,15.804878 L57.9512195,15.804878 L57.9512195,14.0487805 L59.7073171,14.0487805 L59.7073171,15.804878 L61.4634146,15.804878 L61.4634146,17.5609756 L57.9512195,17.5609756 L57.9512195,19.3170732 L56.195122,19.3170732 L56.195122,17.5609756 L54.4390244,17.5609756 L54.4390244,19.3170732 L52.6829268,19.3170732 L52.6829268,15.804878 L50.9268293,15.804878 L50.9268293,17.5609756 L49.1707317,17.5609756 L49.1707317,15.804878 L50.9268293,15.804878 L50.9268293,14.0487805 L56.195122,14.0487805 Z M66.7317073,14.0487805 L66.7317073,17.5609756 L63.2195122,17.5609756 L63.2195122,15.804878 L64.9756098,15.804878 L64.9756098,14.0487805 L66.7317073,14.0487805 Z M72,15.804878 L72,17.5609756 L70.2439024,17.5609756 L70.2439024,15.804878 L72,15.804878 Z M70.2439024,14.0487805 L70.2439024,15.804878 L68.4878049,15.804878 L68.4878049,14.0487805 L70.2439024,14.0487805 Z M29.8536585,7.02439024 L28.097561,7.02439024 L28.097561,8.7804878 L29.8536585,8.7804878 L29.8536585,12.2926829 L28.097561,12.2926829 L28.097561,10.5365854 L26.3414634,10.5365854 L26.3414634,12.2926829 L28.097561,12.2926829 L28.097561,14.0487805 L31.6097561,14.0487805 L31.6097561,15.804878 L33.3658537,15.804878 L33.3658537,14.0487805 L31.6097561,14.0487805 L31.6097561,10.5365854 L33.3658537,10.5365854 L33.3658537,12.2926829 L35.1219512,12.2926829 L35.1219512,8.7804878 L29.8536585,8.7804878 L29.8536585,7.02439024 Z M63.2195122,14.0487805 L63.2195122,15.804878 L61.4634146,15.804878 L61.4634146,14.0487805 L63.2195122,14.0487805 Z M17.5609756,12.2926829 L17.5609756,14.0487805 L15.804878,14.0487805 L15.804878,12.2926829 L17.5609756,12.2926829 Z M45.6585366,10.5365854 L43.902439,10.5365854 L43.902439,14.0487805 L45.6585366,14.0487805 L45.6585366,10.5365854 Z M38.6341463,5.26829268 L36.8780488,5.26829268 L36.8780488,7.02439024 L38.6341463,7.02439024 L38.6341463,8.7804878 L40.3902439,8.7804878 L40.3902439,12.2926829 L42.1463415,12.2926829 L42.1463415,10.5365854 L43.902439,10.5365854 L43.902439,7.02439024 L42.1463415,7.02439024 L42.1463415,8.7804878 L40.3902439,8.7804878 L40.3902439,7.02439024 L38.6341463,7.02439024 L38.6341463,5.26829268 Z M12.2926829,0 L12.2926829,12.2926829 L0,12.2926829 L0,0 L12.2926829,0 Z M17.5609756,7.02439024 L17.5609756,8.7804878 L19.3170732,8.7804878 L19.3170732,12.2926829 L17.5609756,12.2926829 L17.5609756,10.5365854 L15.804878,10.5365854 L15.804878,12.2926829 L14.0487805,12.2926829 L14.0487805,8.7804878 L15.804878,8.7804878 L15.804878,7.02439024 L17.5609756,7.02439024 Z M38.6341463,10.5365854 L36.8780488,10.5365854 L36.8780488,12.2926829 L38.6341463,12.2926829 L38.6341463,10.5365854 Z M72,0 L72,12.2926829 L59.7073171,12.2926829 L59.7073171,0 L72,0 Z M70.2439024,1.75609756 L61.4634146,1.75609756 L61.4634146,10.5365854 L70.2439024,10.5365854 L70.2439024,1.75609756 Z M10.5365854,1.75609756 L1.75609756,1.75609756 L1.75609756,10.5365854 L10.5365854,10.5365854 L10.5365854,1.75609756 Z M68.4878049,3.51219512 L68.4878049,8.7804878 L63.2195122,8.7804878 L63.2195122,3.51219512 L68.4878049,3.51219512 Z M8.7804878,3.51219512 L8.7804878,8.7804878 L3.51219512,8.7804878 L3.51219512,3.51219512 L8.7804878,3.51219512 Z M24.5853659,0 L24.5853659,1.75609756 L26.3414634,1.75609756 L26.3414634,0 L29.8536585,0 L29.8536585,1.75609756 L31.6097561,1.75609756 L31.6097561,0 L35.1219512,0 L35.1219512,1.75609756 L33.3658537,1.75609756 L33.3658537,5.26829268 L31.6097561,5.26829268 L31.6097561,3.51219512 L24.5853659,3.51219512 L24.5853659,5.26829268 L22.8292683,5.26829268 L22.8292683,7.02439024 L21.0731707,7.02439024 L21.0731707,0 L24.5853659,0 Z M15.804878,5.26829268 L15.804878,7.02439024 L14.0487805,7.02439024 L14.0487805,5.26829268 L15.804878,5.26829268 Z M50.9268293,5.26829268 L50.9268293,7.02439024 L49.1707317,7.02439024 L49.1707317,5.26829268 L50.9268293,5.26829268 Z M50.9268293,0 L50.9268293,3.51219512 L49.1707317,3.51219512 L49.1707317,5.26829268 L45.6585366,5.26829268 L45.6585366,1.75609756 L49.1707317,1.75609756 L49.1707317,0 L50.9268293,0 Z M57.9512195,0 L57.9512195,1.75609756 L54.4390244,1.75609756 L54.4390244,5.26829268 L52.6829268,5.26829268 L52.6829268,0 L57.9512195,0 Z M17.5609756,3.51219512 L17.5609756,5.26829268 L15.804878,5.26829268 L15.804878,3.51219512 L17.5609756,3.51219512 Z M15.804878,1.75609756 L15.804878,3.51219512 L14.0487805,3.51219512 L14.0487805,1.75609756 L15.804878,1.75609756 Z M36.8780488,1.75609756 L36.8780488,3.51219512 L35.1219512,3.51219512 L35.1219512,1.75609756 L36.8780488,1.75609756 Z M19.3170732,1.75609756 L19.3170732,3.51219512 L17.5609756,3.51219512 L17.5609756,1.75609756 L19.3170732,1.75609756 Z M45.6585366,0 L45.6585366,1.75609756 L43.902439,1.75609756 L43.902439,0 L45.6585366,0 Z" id="形状结合"></path>
                </g>
            </g>
        </g>
    </g>
</svg>