<?xml version="1.0" encoding="UTF-8"?>
<svg width="20px" height="20px" viewBox="0 0 20 20" version="1.1" xmlns="http://www.w3.org/2000/svg"
     xmlns:xlink="http://www.w3.org/1999/xlink">
    <title>减号备份</title>
    <g id="页面-1" stroke="none" stroke-width="1" fill="none" fill-rule="evenodd">
        <g id="创建项目" transform="translate(-827.000000, -542.000000)" fill-rule="nonzero">
            <g id="编组-7备份-6" transform="translate(41.000000, 364.000000)">
                <g id="编组-6" transform="translate(24.000000, 56.000000)">
                    <g id="减号备份" transform="translate(762.000000, 122.000000)">
                        <path d="M18.3033,17.4514 C18.2489,18.5295 16.9232,18.2977 16.1861,18.2977 L3.5375,18.2977 C2.8393,18.2977 1.9042,18.3824 1.9042,17.3802 L1.9042,14.8665 L1.9042,5.5677 L1.9042,2.8701 C1.9042,1.9104 2.6895,1.8983 3.399,1.8983 L16.0034,1.8983 C16.6745,1.8983 17.8016,1.6846 18.2091,2.3553 C18.3422,2.5744 18.3033,2.9037 18.3033,3.1529 L18.3033,17.4514 C18.3033,18.0962 19.3033,18.0962 19.3033,17.4514 L19.3033,3.1179 C19.3033,2.8075 19.3038,2.5182 19.2249,2.2115 C19.0191,1.4112 18.208,0.8984 17.4137,0.8984 L2.9203,0.8984 C1.7279,0.8984 0.9043,1.722 0.9043,2.9144 L0.9043,17.4081 C0.9043,18.2646 1.4294,18.931 2.2174,19.2193 C2.4976,19.3219 2.8277,19.2977 3.1238,19.2977 L17.457,19.2977 C18.4982,19.2977 19.2527,18.453 19.3033,17.4514 C19.3358,16.8065 18.3357,16.8097 18.3033,17.4514 L18.3033,17.4514 Z M4.5038,10.5979 L15.7037,10.5979 C16.3485,10.5979 16.3485,9.5979 15.7037,9.5979 L4.5038,9.5979 C3.8589,9.5979 3.8589,10.5979 4.5038,10.5979 Z"
                              id="形状" fill="#9A9A9A"></path>
                    </g>
                </g>
            </g>
        </g>
    </g>
</svg>