<?xml version="1.0" standalone="no"?><!DOCTYPE svg PUBLIC "-//W3C//DTD SVG 1.1//EN" "http://www.w3.org/Graphics/SVG/1.1/DTD/svg11.dtd"><svg t="1648201496780" class="icon" viewBox="0 0 1024 1024" version="1.1" xmlns="http://www.w3.org/2000/svg" p-id="2291" xmlns:xlink="http://www.w3.org/1999/xlink" width="200" height="200"><defs><style type="text/css">@font-face { font-family: feedback-iconfont; src: url("//at.alicdn.com/t/font_1031158_u69w8yhxdu.woff2?t=1630033759944") format("woff2"), url("//at.alicdn.com/t/font_1031158_u69w8yhxdu.woff?t=1630033759944") format("woff"), url("//at.alicdn.com/t/font_1031158_u69w8yhxdu.ttf?t=1630033759944") format("truetype"); }
</style></defs><path d="M698.052923 797.617231a14.060308 14.060308 0 0 1-6.577231-1.614769L512 701.636923 332.524308 795.963077a14.060308 14.060308 0 0 1-20.440616-14.848l34.264616-199.837539-145.171693-141.548307a14.060308 14.060308 0 0 1 7.798154-24.024616l200.664616-29.144615L499.396923 204.8a14.060308 14.060308 0 0 1 25.206154 0L614.4 386.599385l200.664615 29.144615a14.060308 14.060308 0 0 1 7.798154 24.024615l-145.211077 141.548308 34.264616 199.837539a14.060308 14.060308 0 0 1-13.824 16.462769z" p-id="2292"></path></svg>