<?xml version="1.0" standalone="no"?><!DOCTYPE svg PUBLIC "-//W3C//DTD SVG 1.1//EN" "http://www.w3.org/Graphics/SVG/1.1/DTD/svg11.dtd"><svg t="1653541306550" class="icon" viewBox="0 0 1024 1024" version="1.1" xmlns="http://www.w3.org/2000/svg" p-id="4075" xmlns:xlink="http://www.w3.org/1999/xlink" width="200" height="200"><defs><style type="text/css">@font-face { font-family: feedback-iconfont; src: url("//at.alicdn.com/t/font_1031158_u69w8yhxdu.woff2?t=1630033759944") format("woff2"), url("//at.alicdn.com/t/font_1031158_u69w8yhxdu.woff?t=1630033759944") format("woff"), url("//at.alicdn.com/t/font_1031158_u69w8yhxdu.ttf?t=1630033759944") format("truetype"); }
@font-face { font-family: feedback-iconfont; src: url("//at.alicdn.com/t/font_1031158_u69w8yhxdu.woff2?t=1630033759944") format("woff2"), url("//at.alicdn.com/t/font_1031158_u69w8yhxdu.woff?t=1630033759944") format("woff"), url("//at.alicdn.com/t/font_1031158_u69w8yhxdu.ttf?t=1630033759944") format("truetype"); }
@font-face { font-family: feedback-iconfont; src: url("//at.alicdn.com/t/font_1031158_1uhr8ri0pk5.eot?#iefix") format("embedded-opentype"), url("//at.alicdn.com/t/font_1031158_1uhr8ri0pk5.woff2") format("woff2"), url("//at.alicdn.com/t/font_1031158_1uhr8ri0pk5.woff") format("woff"), url("//at.alicdn.com/t/font_1031158_1uhr8ri0pk5.ttf") format("truetype"), url("//at.alicdn.com/t/font_1031158_1uhr8ri0pk5.svg#iconfont") format("svg"); }
@font-face { font-family: feedback-iconfont; src: url("//at.alicdn.com/t/font_1031158_1uhr8ri0pk5.eot?#iefix") format("embedded-opentype"), url("//at.alicdn.com/t/font_1031158_1uhr8ri0pk5.woff2") format("woff2"), url("//at.alicdn.com/t/font_1031158_1uhr8ri0pk5.woff") format("woff"), url("//at.alicdn.com/t/font_1031158_1uhr8ri0pk5.ttf") format("truetype"), url("//at.alicdn.com/t/font_1031158_1uhr8ri0pk5.svg#iconfont") format("svg"); }
</style></defs><path d="M928 254.272a341.952 341.952 0 0 1-98.176 26.432c35.392-21.12 62.272-54.4 74.944-94.016a336.64 336.64 0 0 1-108.16 41.216 170.112 170.112 0 0 0-124.608-53.888 170.496 170.496 0 0 0-170.496 170.56c0 13.248 1.6 26.432 4.224 39.104a484.608 484.608 0 0 1-351.616-178.496 170.624 170.624 0 0 0 52.8 228.224 171.968 171.968 0 0 1-77.12-21.76v2.176c0 82.88 58.624 151.552 136.704 167.36-14.272 3.712-29.568 5.76-44.864 5.76-11.136 0-21.632-1.024-32.256-2.56A170.88 170.88 0 0 0 348.8 702.72a341.76 341.76 0 0 1-211.712 72.896c-14.272 0-27.52-0.512-41.216-2.112a482.88 482.88 0 0 0 261.952 76.48c313.6 0 485.12-259.84 485.12-485.312 0-7.36 0-14.72-0.448-22.144 33.216-24.32 62.272-54.4 85.504-88.256z" fill="#008EE9" p-id="4076"></path></svg>