<?xml version="1.0" standalone="no"?><!DOCTYPE svg PUBLIC "-//W3C//DTD SVG 1.1//EN" "http://www.w3.org/Graphics/SVG/1.1/DTD/svg11.dtd"><svg t="1658730735128" class="icon" viewBox="0 0 1024 1024" version="1.1" xmlns="http://www.w3.org/2000/svg" p-id="3869" xmlns:xlink="http://www.w3.org/1999/xlink" width="200" height="200"><defs><style type="text/css">@font-face { font-family: feedback-iconfont; src: url("//at.alicdn.com/t/font_1031158_u69w8yhxdu.woff2?t=1630033759944") format("woff2"), url("//at.alicdn.com/t/font_1031158_u69w8yhxdu.woff?t=1630033759944") format("woff"), url("//at.alicdn.com/t/font_1031158_u69w8yhxdu.ttf?t=1630033759944") format("truetype"); }
@font-face { font-family: feedback-iconfont; src: url("//at.alicdn.com/t/font_1031158_u69w8yhxdu.woff2?t=1630033759944") format("woff2"), url("//at.alicdn.com/t/font_1031158_u69w8yhxdu.woff?t=1630033759944") format("woff"), url("//at.alicdn.com/t/font_1031158_u69w8yhxdu.ttf?t=1630033759944") format("truetype"); }
@font-face { font-family: feedback-iconfont; src: url("//at.alicdn.com/t/font_1031158_u69w8yhxdu.woff2?t=1630033759944") format("woff2"), url("//at.alicdn.com/t/font_1031158_u69w8yhxdu.woff?t=1630033759944") format("woff"), url("//at.alicdn.com/t/font_1031158_u69w8yhxdu.ttf?t=1630033759944") format("truetype"); }
@font-face { font-family: feedback-iconfont; src: url("//at.alicdn.com/t/font_1031158_1uhr8ri0pk5.eot?#iefix") format("embedded-opentype"), url("//at.alicdn.com/t/font_1031158_1uhr8ri0pk5.woff2") format("woff2"), url("//at.alicdn.com/t/font_1031158_1uhr8ri0pk5.woff") format("woff"), url("//at.alicdn.com/t/font_1031158_1uhr8ri0pk5.ttf") format("truetype"), url("//at.alicdn.com/t/font_1031158_1uhr8ri0pk5.svg#iconfont") format("svg"); }
@font-face { font-family: feedback-iconfont; src: url("//at.alicdn.com/t/font_1031158_1uhr8ri0pk5.eot?#iefix") format("embedded-opentype"), url("//at.alicdn.com/t/font_1031158_1uhr8ri0pk5.woff2") format("woff2"), url("//at.alicdn.com/t/font_1031158_1uhr8ri0pk5.woff") format("woff"), url("//at.alicdn.com/t/font_1031158_1uhr8ri0pk5.ttf") format("truetype"), url("//at.alicdn.com/t/font_1031158_1uhr8ri0pk5.svg#iconfont") format("svg"); }
@font-face { font-family: feedback-iconfont; src: url("//at.alicdn.com/t/font_1031158_u69w8yhxdu.woff2?t=1630033759944") format("woff2"), url("//at.alicdn.com/t/font_1031158_u69w8yhxdu.woff?t=1630033759944") format("woff"), url("//at.alicdn.com/t/font_1031158_u69w8yhxdu.ttf?t=1630033759944") format("truetype"); }
@font-face { font-family: feedback-iconfont; src: url("//at.alicdn.com/t/font_1031158_1uhr8ri0pk5.eot?#iefix") format("embedded-opentype"), url("//at.alicdn.com/t/font_1031158_1uhr8ri0pk5.woff2") format("woff2"), url("//at.alicdn.com/t/font_1031158_1uhr8ri0pk5.woff") format("woff"), url("//at.alicdn.com/t/font_1031158_1uhr8ri0pk5.ttf") format("truetype"), url("//at.alicdn.com/t/font_1031158_1uhr8ri0pk5.svg#iconfont") format("svg"); }
@font-face { font-family: feedback-iconfont; src: url("//at.alicdn.com/t/font_1031158_1uhr8ri0pk5.eot?#iefix") format("embedded-opentype"), url("//at.alicdn.com/t/font_1031158_1uhr8ri0pk5.woff2") format("woff2"), url("//at.alicdn.com/t/font_1031158_1uhr8ri0pk5.woff") format("woff"), url("//at.alicdn.com/t/font_1031158_1uhr8ri0pk5.ttf") format("truetype"), url("//at.alicdn.com/t/font_1031158_1uhr8ri0pk5.svg#iconfont") format("svg"); }
</style></defs><path d="M435.313778 146.659556c-0.995556 17.351111-7.907556 26.026667-22.414222 34.076444-55.637333 30.976-110.563556 63.203556-165.603556 95.232-5.688889 3.328-9.386667 3.470222-15.217778-0.426667-33.450667-22.499556-79.957333-10.951111-99.441778 24.177778-19.626667 35.413333-5.063111 80.611556 31.857778 97.194667 5.034667 2.275556 5.745778 4.835556 5.745778 9.386666-0.085333 70.371556-0.113778 140.8 0.056889 211.2 0 5.404444-1.962667 7.708444-6.627556 10.040889-29.468444 14.563556-44.117333 41.358222-40.704 73.386667 2.986667 28.245333 24.234667 50.659556 55.722667 57.856 19.512889 4.465778 37.831111 0.426667 54.072889-11.178667 4.124444-2.958222 6.883556-3.015111 11.036444-0.597333 61.212444 35.498667 122.424889 70.968889 183.893334 106.012444 5.745778 3.271111 5.034667 7.310222 5.12 11.946667 0.682667 34.872889 17.464889 59.591111 47.502222 69.888 44.657778 15.331556 91.761778-17.436444 91.875555-64.711111 0.028444-10.666667 3.413333-16.071111 12.743112-21.333333 58.823111-33.251556 117.191111-67.242667 175.644444-101.148445 4.693333-2.730667 7.68-3.214222 12.657778 0.369778 35.356444 25.713778 81.635556 6.286222 98.673778-21.930667 20.195556-33.536 7.68-79.246222-27.676445-97.137777-7.452444-3.754667-9.187556-7.793778-9.159111-15.331556 0.227556-68.465778 0.142222-136.931556 0.142222-205.397333 0-4.664889-0.682667-8.533333 5.688889-11.377778a69.489778 69.489778 0 0 0 39.196445-78.307556c-7.395556-32.312889-35.925333-54.613333-62.72-54.499555-21.162667-0.113778-34.275556 4.067556-45.710223 12.430222-4.494222 3.271111-7.338667 3.072-11.861333 0.398222a24469.048889 24469.048889 0 0 0-179.256889-104.561778c-6.115556-3.527111-6.314667-7.708444-6.371555-13.283555-0.398222-37.290667-22.272-64.796444-57.315556-72.305778-38.371556-8.192-79.303111 20.707556-81.550222 59.932445z m107.52 65.536c3.783111-2.56 6.286222-3.043556 10.24-0.625778 2.986667 1.848889 6.058667 3.640889 9.102222 5.404444l18.488889 10.439111c51.939556 29.667556 103.822222 59.363556 155.704889 89.144889 3.015111 1.706667 6.997333 2.389333 6.4 8.135111-3.555556 33.308444 10.439111 57.315556 40.106666 72.248889 3.811556 1.905778 5.034667 3.811556 5.034667 7.850667-0.113778 71.395556-0.085333 142.734222-0.028444 214.101333 0 3.868444-0.824889 6.058667-4.864 8.078222-30.407111 15.018667-43.150222 38.058667-40.391111 72.078223 1.251556 2.986667-0.199111 4.437333-2.133334 5.575111l-2.389333 1.308444c-61.553778 35.527111-123.164444 70.968889-184.689778 106.552889-3.669333 2.133333-6.200889 2.616889-10.24-0.113778-27.306667-18.432-53.646222-18.403556-80.896-0.170666-3.214222 2.161778-5.404444 3.128889-9.358222 0.853333a53929.216 53929.216 0 0 0-186.424889-107.491556c-3.242667-1.848889-4.124444-3.697778-3.612444-7.623111a66.275556 66.275556 0 0 0-37.831112-69.603555c-5.916444-2.787556-7.68-5.888-7.651555-12.231111 0.284444-69.12 0.341333-138.24 0.142222-207.36 0-6.343111 1.792-9.301333 7.651556-12.117334 26.737778-12.885333 42.040889-41.244444 37.802666-69.802666-0.768-5.12 1.194667-6.712889 4.778667-8.789334 61.326222-35.299556 122.624-70.656 183.864889-106.126222 4.096-2.389333 6.883556-2.417778 11.093333 0.426667 26.396444 17.863111 53.845333 17.777778 80.128-0.142222z" fill="#18304E" p-id="3870"></path><path d="M339.911111 444.728889v39.68c0 35.527111 0.142222 71.025778-0.142222 106.552889-0.056889 10.069333 3.754667 17.635556 12.231111 22.528 41.927111 24.348444 83.996444 48.497778 127.431111 73.528889v-8.248889c0-48.412444-0.142222-96.853333 0.170667-145.265778 0.056889-6.371556-1.962667-9.528889-7.452445-12.629333-41.102222-23.381333-81.948444-47.189333-122.88-70.826667l-9.386666-5.319111z m324.465778 0.568889c-8.647111 4.949333-17.237333 9.813333-25.770667 14.762666-35.356444 20.423111-70.684444 40.931556-106.097778 61.240889-4.152889 2.389333-6.741333 4.551111-6.712888 10.126223 0.284444 51.342222 0.170667 102.684444 0.170666 155.591111 43.633778-25.201778 85.987556-49.521778 128.199111-74.040889a21.219556 21.219556 0 0 0 11.320889-19.057778c0.028444-48.753778 0-97.507556-0.028444-146.261333 0-0.512-0.483556-1.052444-1.080889-2.360889z m-172.430222-115.171556c-42.865778 24.547556-85.589333 49.379556-129.365334 74.723556 25.998222 14.933333 51.029333 29.297778 76.032 43.719111 19.484444 11.235556 38.968889 22.414222 58.396445 33.763555 3.555556 2.076444 6.4 2.901333 10.496 0.512 43.633778-25.315556 87.409778-50.432 131.128889-75.633777 1.080889-0.625778 1.991111-1.621333 3.328-2.730667-42.723556-24.832-85.134222-49.607111-127.715556-74.069333a21.959111 21.959111 0 0 0-22.300444-0.284445z" fill="#1CD2A9" p-id="3871"></path></svg>