<?xml version="1.0" encoding="UTF-8"?>
<svg width="24px" height="24px" viewBox="0 0 24 24" version="1.1" xmlns="http://www.w3.org/2000/svg" xmlns:xlink="http://www.w3.org/1999/xlink">
    <g id="控件" stroke="none" stroke-width="1" fill="none" fill-rule="evenodd">
        <g id="编组-44" transform="translate(-263.000000, 0.000000)" fill-rule="nonzero">
            <g id="大额" transform="translate(263.000000, 0.000000)">
                <g id="编程">
                    <rect id="矩形" fill="#000000" opacity="0" x="0" y="0" width="24" height="24"></rect>
                    <path d="M1.368,12.0264 C1.368,17.8618407 6.09855933,22.5924 11.934,22.5924 C17.7694407,22.5924 22.5,17.8618407 22.5,12.0264 C22.5,6.19095933 17.7694407,1.4604 11.934,1.4604 C6.09855933,1.4604 1.368,6.19095933 1.368,12.0264 Z" id="路径" fill="#F4CC29"></path>
                </g>
                <g id="专项资金" transform="translate(5.000000, 5.000000)">
                    <rect id="矩形" fill="#000000" opacity="0" x="0" y="0" width="14" height="14"></rect>
                    <path d="M1.1073125,9.07182227 C0.650357422,10.1231348 0.538357422,11.1654785 0.535360182,11.9300645 C0.533873047,12.5901152 1.06997461,13.1247266 1.73002539,13.1247266 L12.299834,13.1247266 C12.9598848,13.1247266 13.4959863,12.5901152 13.4944992,11.9300645 C13.4930059,11.1654785 13.379502,10.1231348 12.9240371,9.07182227 C12.0384961,7.0319375 10.4361523,4.80835742 8.75764258,3.73463672 L5.27220312,3.73463672 C3.59369336,4.80834375 1.99134961,7.03191016 1.10728516,9.07182227 L1.1073125,9.07182227 Z M7.84970703,9.01656055 C7.672,8.79853516 7.36736328,8.70594922 7.09258594,8.64322266 C6.75211523,8.56556641 6.44597461,8.48791016 6.13834375,8.31617773 C5.94122266,8.20566797 5.78592383,8.05036914 5.67839453,7.85473828 C5.57236914,7.66061133 5.51861133,7.43661133 5.51861133,7.19169336 C5.51861133,6.75415234 5.67541406,6.39574414 5.98602539,6.12396094 C6.16970703,5.9626875 6.42058594,5.8506875 6.70431836,5.79991016 L6.70431836,5.56098047 C6.70431836,5.39970703 6.83573242,5.2697832 6.99551562,5.2697832 L7.15380859,5.2697832 C7.31508203,5.2697832 7.44500586,5.40119727 7.44500586,5.56098047 L7.44500586,5.8029043 C7.70782031,5.85368164 7.9422793,5.95671289 8.11700586,6.10305664 C8.30366797,6.25686523 8.43956641,6.45398633 8.52319727,6.68694141 C8.58441992,6.85867383 8.47241992,7.04533594 8.29024219,7.07221484 L8.13643359,7.09460937 C7.99755469,7.11552734 7.86165625,7.03338672 7.81685352,6.90048242 C7.77951562,6.79147656 7.73024219,6.70187109 7.66900586,6.63316992 C7.53012695,6.47636719 7.31061133,6.38825195 7.06719727,6.38825195 C6.80885352,6.38825195 6.56393555,6.48979297 6.41312109,6.65854492 C6.28917187,6.79742383 6.22943945,6.95720703 6.22943945,7.14686328 C6.22943945,7.33204883 6.28170703,7.49032812 6.38475195,7.61278711 C6.59979687,7.87113086 6.9522168,7.9428125 7.29270117,8.01151367 C7.4913125,8.05183203 7.69738867,8.09364062 7.8750957,8.17129687 C8.06475195,8.25491406 8.22304492,8.35944922 8.34401367,8.48041797 C8.46496875,8.60137305 8.56054883,8.74773047 8.62625586,8.91497852 C8.69047266,9.08073633 8.72481641,9.26292773 8.72481641,9.45705469 C8.72481641,9.88116992 8.58742773,10.2395645 8.31713477,10.5247871 C8.094625,10.7577422 7.79298242,10.9130547 7.44501953,10.9742773 L7.44501953,11.1504941 C7.44501953,11.3117676 7.31360547,11.4416914 7.15382227,11.4416914 L6.9955293,11.4416914 C6.83425586,11.4416914 6.70433203,11.3102773 6.70433203,11.1504941 L6.70433203,10.9668125 C6.51318555,10.9309648 6.32951758,10.868252 6.16525,10.7846211 C5.97112305,10.6845703 5.80237109,10.5218066 5.66198828,10.3007734 C5.56791211,10.1529258 5.50071484,9.98269727 5.45890625,9.79155078 C5.4245625,9.63027734 5.5320918,9.47347461 5.69485547,9.4450918 L5.85314844,9.41821289 C6.00396289,9.39133398 6.14883008,9.48541016 6.1861543,9.63325781 C6.23095703,9.80798438 6.29068945,9.94386914 6.36535156,10.0394492 C6.53261328,10.2544941 6.80888086,10.3829141 7.10454883,10.3829141 C7.15532617,10.3829141 7.20459961,10.3784434 7.25388672,10.3724551 C7.4659375,10.3411055 7.65410352,10.241041 7.78700781,10.0902129 C7.92588672,9.93191992 7.99607812,9.73181836 7.99607812,9.49735937 C7.99607812,9.29575391 7.94680469,9.13448047 7.84973437,9.01650586 L7.84970703,9.01656055 Z M7.07765625,0.689746094 L7.07466211,0.689746094 L4.79732422,0.695720703 C4.38067383,0.697210937 4.13278906,1.16164453 4.36425391,1.50810352 L5.38569336,3.04025586 L8.76957812,3.04025586 L9.79101758,1.50810352 C10.0224824,1.16164453 9.77459766,0.697224609 9.35794727,0.695720703 L7.07762891,0.689746094 L7.07765625,0.689746094 Z" id="形状" fill="#18304E"></path>
                </g>
            </g>
        </g>
    </g>
</svg>