<?xml version="1.0" encoding="UTF-8"?>
<svg width="36px" height="36px" viewBox="0 0 36 36" version="1.1" xmlns="http://www.w3.org/2000/svg" xmlns:xlink="http://www.w3.org/1999/xlink">
    <title>推荐</title>
    <g id="页面-1" stroke="none" stroke-width="1" fill="none" fill-rule="evenodd">
        <g id="详情" transform="translate(-359.000000, -3641.000000)" fill-rule="nonzero">
            <g id="编组-67" transform="translate(335.000000, 3641.000000)">
                <g id="推荐" transform="translate(24.000000, 0.000000)">
                    <rect id="矩形" fill="#000000" opacity="0" x="0" y="0" width="36" height="36"></rect>
                    <path d="M3.375,5.625 L32.625,5.625 C33.2463164,5.625 33.75,6.12868359 33.75,6.75 L33.75,29.25 C33.75,29.8713164 33.2463164,30.375 32.625,30.375 L3.375,30.375 C2.75368359,30.375 2.25,29.8713164 2.25,29.25 L2.25,6.75 C2.25,6.12868359 2.75368359,5.625 3.375,5.625 Z M4.78125,7.875 C4.62591991,7.875 4.5,8.00091991 4.5,8.15625 L4.5,27.84375 C4.5,27.9990801 4.62591991,28.125 4.78125,28.125 L31.21875,28.125 C31.3740801,28.125 31.5,27.9990801 31.5,27.84375 L31.5,8.15625 C31.5,8.00091991 31.3740801,7.875 31.21875,7.875 L4.78125,7.875 Z" id="形状" fill="#18304E"></path>
                    <path d="M10.4003789,18.9519012 C10.5074377,18.9519012 10.6052123,19.0126825 10.6525898,19.1086875 L11.70225,21.2355 L14.0492812,21.5765156 C14.155239,21.5918913 14.2432764,21.6660943 14.2763698,21.7679191 C14.3094632,21.8697438 14.2818719,21.9815266 14.2051992,22.0562578 L12.5068008,23.7117656 L12.9077578,26.049375 C12.9258523,26.1548916 12.882473,26.2615308 12.7958597,26.3244538 C12.7092464,26.3873768 12.5944209,26.3956705 12.4996641,26.3458477 L10.4003789,25.2421875 L8.30109375,26.3458477 C8.20633694,26.3956705 8.09151144,26.3873768 8.00489811,26.3244538 C7.91828479,26.2615308 7.8749055,26.1548916 7.893,26.049375 L8.29395703,23.7117656 L6.59555859,22.0562578 C6.51890878,21.981529 6.49132766,21.8697663 6.52441095,21.7679572 C6.55749424,21.6661481 6.64550493,21.5919474 6.75144141,21.5765508 L9.09854297,21.2355 L10.148168,19.1086875 C10.1955455,19.0126825 10.2933201,18.9519012 10.4003789,18.9519012 Z M28.0195313,21.0585938 C28.8738281,21.0585938 29.5664063,21.7511719 29.5664063,22.6054688 C29.5664063,23.4597656 28.8738281,24.1523438 28.0195313,24.1523438 L17.7539063,24.1523438 C16.8996094,24.1523438 16.2070312,23.4597656 16.2070312,22.6054688 C16.2070312,21.7511719 16.8996094,21.0585938 17.7539063,21.0585938 L28.0195313,21.0585938 Z" id="形状结合" fill="#0ED9AC"></path>
                    <path d="M10.4003789,9.74096367 C10.5074377,9.74096367 10.6052123,9.80174499 10.6525898,9.89775 L11.70225,12.0245625 L14.0492812,12.3655781 C14.155239,12.3809538 14.2432764,12.4551568 14.2763698,12.5569816 C14.3094632,12.6588063 14.2818719,12.7705891 14.2051992,12.8453203 L12.5068008,14.5008281 L12.9077578,16.8384375 C12.9258523,16.9439541 12.882473,17.0505933 12.7958597,17.1135163 C12.7092464,17.1764393 12.5944209,17.184733 12.4996641,17.1349102 L10.4003789,16.03125 L8.30109375,17.1349102 C8.20633694,17.184733 8.09151144,17.1764393 8.00489811,17.1135163 C7.91828479,17.0505933 7.8749055,16.9439541 7.893,16.8384375 L8.29395703,14.5008281 L6.59555859,12.8453203 C6.51890878,12.7705915 6.49132766,12.6588288 6.52441095,12.5570197 C6.55749424,12.4552106 6.64550493,12.3810099 6.75144141,12.3656133 L9.09854297,12.0245625 L10.148168,9.89775 C10.1955455,9.80174499 10.2933201,9.74096367 10.4003789,9.74096367 Z M28.0195313,11.9179688 C28.8738281,11.9179688 29.5664063,12.6105469 29.5664063,13.4648438 C29.5664063,14.3191406 28.8738281,15.0117188 28.0195313,15.0117188 L17.7539063,15.0117188 C16.8996094,15.0117188 16.2070312,14.3191406 16.2070312,13.4648438 C16.2070312,12.6105469 16.8996094,11.9179688 17.7539063,11.9179688 L28.0195313,11.9179688 Z" id="形状结合" fill="#0ED9AC"></path>
                </g>
            </g>
        </g>
    </g>
</svg>