<?xml version="1.0" standalone="no"?><!DOCTYPE svg PUBLIC "-//W3C//DTD SVG 1.1//EN" "http://www.w3.org/Graphics/SVG/1.1/DTD/svg11.dtd"><svg t="1658732486976" class="icon" viewBox="0 0 1024 1024" version="1.1" xmlns="http://www.w3.org/2000/svg" p-id="4167" xmlns:xlink="http://www.w3.org/1999/xlink" width="200" height="200"><defs><style type="text/css">@font-face { font-family: feedback-iconfont; src: url("//at.alicdn.com/t/font_1031158_u69w8yhxdu.woff2?t=1630033759944") format("woff2"), url("//at.alicdn.com/t/font_1031158_u69w8yhxdu.woff?t=1630033759944") format("woff"), url("//at.alicdn.com/t/font_1031158_u69w8yhxdu.ttf?t=1630033759944") format("truetype"); }
@font-face { font-family: feedback-iconfont; src: url("//at.alicdn.com/t/font_1031158_u69w8yhxdu.woff2?t=1630033759944") format("woff2"), url("//at.alicdn.com/t/font_1031158_u69w8yhxdu.woff?t=1630033759944") format("woff"), url("//at.alicdn.com/t/font_1031158_u69w8yhxdu.ttf?t=1630033759944") format("truetype"); }
@font-face { font-family: feedback-iconfont; src: url("//at.alicdn.com/t/font_1031158_u69w8yhxdu.woff2?t=1630033759944") format("woff2"), url("//at.alicdn.com/t/font_1031158_u69w8yhxdu.woff?t=1630033759944") format("woff"), url("//at.alicdn.com/t/font_1031158_u69w8yhxdu.ttf?t=1630033759944") format("truetype"); }
@font-face { font-family: feedback-iconfont; src: url("//at.alicdn.com/t/font_1031158_1uhr8ri0pk5.eot?#iefix") format("embedded-opentype"), url("//at.alicdn.com/t/font_1031158_1uhr8ri0pk5.woff2") format("woff2"), url("//at.alicdn.com/t/font_1031158_1uhr8ri0pk5.woff") format("woff"), url("//at.alicdn.com/t/font_1031158_1uhr8ri0pk5.ttf") format("truetype"), url("//at.alicdn.com/t/font_1031158_1uhr8ri0pk5.svg#iconfont") format("svg"); }
@font-face { font-family: feedback-iconfont; src: url("//at.alicdn.com/t/font_1031158_1uhr8ri0pk5.eot?#iefix") format("embedded-opentype"), url("//at.alicdn.com/t/font_1031158_1uhr8ri0pk5.woff2") format("woff2"), url("//at.alicdn.com/t/font_1031158_1uhr8ri0pk5.woff") format("woff"), url("//at.alicdn.com/t/font_1031158_1uhr8ri0pk5.ttf") format("truetype"), url("//at.alicdn.com/t/font_1031158_1uhr8ri0pk5.svg#iconfont") format("svg"); }
@font-face { font-family: feedback-iconfont; src: url("//at.alicdn.com/t/font_1031158_u69w8yhxdu.woff2?t=1630033759944") format("woff2"), url("//at.alicdn.com/t/font_1031158_u69w8yhxdu.woff?t=1630033759944") format("woff"), url("//at.alicdn.com/t/font_1031158_u69w8yhxdu.ttf?t=1630033759944") format("truetype"); }
@font-face { font-family: feedback-iconfont; src: url("//at.alicdn.com/t/font_1031158_1uhr8ri0pk5.eot?#iefix") format("embedded-opentype"), url("//at.alicdn.com/t/font_1031158_1uhr8ri0pk5.woff2") format("woff2"), url("//at.alicdn.com/t/font_1031158_1uhr8ri0pk5.woff") format("woff"), url("//at.alicdn.com/t/font_1031158_1uhr8ri0pk5.ttf") format("truetype"), url("//at.alicdn.com/t/font_1031158_1uhr8ri0pk5.svg#iconfont") format("svg"); }
@font-face { font-family: feedback-iconfont; src: url("//at.alicdn.com/t/font_1031158_1uhr8ri0pk5.eot?#iefix") format("embedded-opentype"), url("//at.alicdn.com/t/font_1031158_1uhr8ri0pk5.woff2") format("woff2"), url("//at.alicdn.com/t/font_1031158_1uhr8ri0pk5.woff") format("woff"), url("//at.alicdn.com/t/font_1031158_1uhr8ri0pk5.ttf") format("truetype"), url("//at.alicdn.com/t/font_1031158_1uhr8ri0pk5.svg#iconfont") format("svg"); }
</style></defs><path d="M317.582222 827.818667H214.528c-35.100444-0.085333-66.844444-28.103111-71.452444-62.862223a91.562667 91.562667 0 0 1-0.739556-12.088888c0-134.855111 0-269.710222-0.085333-404.565334 0-3.584 0.711111-4.551111 4.465777-4.551111 243.655111 0.113778 487.310222 0.113778 730.936889 0.028445 3.242667 0 4.124444 0.739556 4.124445 4.067555-0.113778 135.964444-0.085333 271.928889-0.113778 407.893333 0 34.986667-28.074667 66.645333-62.919111 71.310223a87.665778 87.665778 0 0 1-11.690667 0.768h-100.323555c49.692444-66.360889 65.991111-139.491556 45.226666-219.591111-14.961778-57.656889-47.644444-104.021333-96.341333-138.325334a248.291556 248.291556 0 0 0-319.857778 27.420445 249.230222 249.230222 0 0 0-18.176 330.496M809.642667 142.222222c34.986667 0 66.588444 28.046222 71.310222 62.947556 0.512 3.896889 0.739556 7.793778 0.739555 11.690666 0 27.591111-0.085333 55.182222 0.085334 82.773334 0 3.413333-1.052444 3.982222-4.152889 3.982222l-182.926222-0.085333h-182.926223c-121.543111 0-243.086222 0-364.600888 0.113777-4.067556 0-4.977778-0.910222-4.949334-4.949333 0.199111-27.591111 0.113778-55.182222 0.113778-82.744889A73.671111 73.671111 0 0 1 214.869333 142.222222h594.773334zM271.843556 202.922667c-4.977778-0.540444-10.040889-0.085333-15.075556-0.085334a295.936 295.936 0 0 0-13.425778-0.085333 20.423111 20.423111 0 0 0-20.309333 18.915556 19.484444 19.484444 0 0 0 16.696889 20.736c11.036444 1.536 22.357333 1.422222 33.393778 0.056888a19.456 19.456 0 0 0 17.066666-20.024888 20.195556 20.195556 0 0 0-18.346666-19.512889z m108.174222 0.170666a153.344 153.344 0 0 0-31.800889 0 19.712 19.712 0 0 0-17.692445 20.024889c0.170667 10.154667 7.964444 18.716444 18.545778 19.740445 4.835556 0.483556 9.784889 0.085333 14.677334 0.085333 4.323556 0.085333 8.647111 0.142222 12.970666 0.085333 11.463111-0.142222 20.195556-8.106667 20.963556-19.143111a19.712 19.712 0 0 0-17.664-20.792889z m91.648-0.512l-13.824 0.199111a20.280889 20.280889 0 0 0-19.740445 19.057778c-0.682667 9.671111 6.343111 18.488889 16.440889 20.650667 5.688889 1.223111 11.434667 0.199111 15.985778 0.568889 5.774222 0 10.382222 0.142222 14.990222-0.056889a20.423111 20.423111 0 0 0 19.768889-20.337778 20.309333 20.309333 0 0 0-19.797333-19.882667c-9.216-0.284444-18.432-0.284444-27.648 0z" fill="#18304E" p-id="4168"></path><path d="M353.422222 543.431111c45.169778 45.312 90.424889 90.538667 135.68 135.736889 1.735111 1.706667 2.446222 3.413333 2.417778 5.859556-0.056889 31.914667-0.028444 63.829333-0.028444 95.772444h0.341333c0 31.914667 0 63.829333 0.056889 95.744 0 2.673778-0.455111 3.612444-3.413334 3.242667-34.503111-4.266667-66.360889-15.758222-94.833777-35.783111-45.454222-32.028444-74.752-75.178667-85.646223-129.820445-12.515556-62.691556 1.308444-119.580444 40.220445-170.382222 1.934222-2.503111 2.844444-2.730667 5.205333-0.369778z m181.76 148.195556l45.141334 0.085333h45.141333c29.667556 0 59.335111 0.056889 89.031111-0.085333 3.697778 0 5.006222 0.113778 4.437333 4.750222-7.907556 61.866667-37.262222 110.933333-87.864889 147.057778a198.912 198.912 0 0 1-92.586666 35.697777c-6.741333 0.853333-7.395556 0.938667-7.452445-4.437333v-1.991111c0-58.936889 0-117.845333-0.085333-176.753778 0-3.441778 0.711111-4.352 4.266667-4.352z m129.991111-159.402667c27.875556 29.496889 44.942222 64.853333 51.911111 104.96 0.711111 4.124444 0.881778 8.362667 1.934223 12.401778 0.853333 3.413333-0.483556 3.527111-3.214223 3.527111l-41.358222-0.056889h-55.239111c-31.772444 0-63.544889-0.028444-95.317333 0.028444a7.850667 7.850667 0 0 1-6.229334-2.474666 57733.262222 57733.262222 0 0 0-135.111111-135.68c-2.616889-2.56-2.446222-3.555556 0.369778-5.745778 30.151111-23.523556 64.085333-38.343111 102.115556-42.609778 70.798222-7.992889 131.157333 13.937778 180.110222 65.649778z" fill="#1CD2A9" p-id="4169"></path></svg>