<?xml version="1.0" encoding="UTF-8"?>
<svg width="24px" height="24px" viewBox="0 0 24 24" version="1.1" xmlns="http://www.w3.org/2000/svg" xmlns:xlink="http://www.w3.org/1999/xlink">
    <g id="控件" stroke="none" stroke-width="1" fill="none" fill-rule="evenodd">
        <g id="编组-44" transform="translate(-327.000000, 0.000000)" fill-rule="nonzero">
            <g id="闪电" transform="translate(327.000000, 0.000000)">
                <g id="菜单备份">
                    <rect id="矩形" fill="#000000" opacity="0" x="0" y="0" width="24" height="24"></rect>
                    <path d="M1.4472,12.1236 C1.4472,17.9590407 6.17775933,22.6896 12.0132,22.6896 C17.8486407,22.6896 22.5792,17.9590407 22.5792,12.1236 C22.5792,6.28815933 17.8486407,1.5576 12.0132,1.5576 C6.17775933,1.5576 1.4472,6.28815933 1.4472,12.1236 Z" id="路径" fill="#F4CC29"></path>
                </g>
                <g transform="translate(4.000000, 4.000000)">
                    <rect id="矩形" fill="#000000" opacity="0" x="0" y="0" width="16" height="16"></rect>
                    <path d="M13.25,5.6140625 L9.8078125,5.6140625 L12.903125,1.703125 C12.9671875,1.6203125 12.909375,1.5 12.8046875,1.5 L6.8125,1.5 C6.76875,1.5 6.7265625,1.5234375 6.7046875,1.5625 L2.65625,8.5546875 C2.6078125,8.6375 2.6671875,8.7421875 2.7640625,8.7421875 L5.4890625,8.7421875 L4.0921875,14.3296875 C4.0625,14.4515625 4.209375,14.5375 4.3,14.45 L13.3359375,5.828125 C13.4171875,5.7515625 13.3625,5.6140625 13.25,5.6140625 Z" id="路径" fill="#18304E"></path>
                </g>
            </g>
        </g>
    </g>
</svg>