<?xml version="1.0" encoding="UTF-8"?>
<svg width="16px" height="16px" viewBox="0 0 16 16" version="1.1" xmlns="http://www.w3.org/2000/svg" xmlns:xlink="http://www.w3.org/1999/xlink">
    <g id="页面-1" stroke="none" stroke-width="1" fill="none" fill-rule="evenodd">
        <g id="风险交易" transform="translate(-451.000000, -264.000000)" fill-rule="nonzero">
            <g id="编组-6" transform="translate(355.000000, 212.000000)">
                <g id="标签-/-n备份-4" transform="translate(90.000000, 44.000000)">
                    <g id="BNB" transform="translate(6.000000, 8.000000)">
                        <path d="M0,8 C0,12.418278 3.58172194,16 8,16 C12.4182778,16 16,12.418278 16,8 C16,3.581722 12.4182778,0 8,0 C3.58172194,0 0,3.581722 0,8 Z" id="路径" fill="#F5F8FB"></path>
                        <g id="专项资金" transform="translate(2.666667, 2.666667)">
                            <rect id="矩形" fill="#000000" opacity="0" x="0" y="0" width="10.6666665" height="10.6666667"></rect>
                            <path d="M0.843666651,6.91186458 C0.495510408,7.71286458 0.410177076,8.50703125 0.407893465,9.08957292 C0.406760409,9.59246875 0.815218735,9.99979167 1.31811456,9.99979167 L9.37130191,9.99979167 C9.87419774,9.99979167 10.2826561,9.59246875 10.281523,9.08957292 C10.2803852,8.50703125 10.1939061,7.71286458 9.84688524,6.91186458 C9.17218734,5.35766667 7.95135402,3.66351042 6.67248946,2.8454375 L4.01691659,2.8454375 C2.73805203,3.6635 1.51721872,5.35764583 0.843645818,6.91186458 L0.843666651,6.91186458 Z M5.98072906,6.86976042 C5.84533323,6.70364583 5.61322907,6.63310417 5.4038749,6.5853125 C5.14446866,6.52614583 4.91121866,6.46697917 4.67683325,6.33613542 C4.52664575,6.2519375 4.40832284,6.13361458 4.32639576,5.9845625 C4.24561451,5.83665625 4.20465617,5.66598958 4.20465617,5.47938542 C4.20465617,5.14602083 4.32412492,4.87294792 4.56078117,4.665875 C4.70072908,4.543 4.89187491,4.45766667 5.10805199,4.41897917 L5.10805199,4.2369375 C5.10805199,4.1140625 5.20817699,4.01507292 5.32991657,4.01507292 L5.45052074,4.01507292 C5.57339573,4.01507292 5.67238531,4.11519792 5.67238531,4.2369375 L5.67238531,4.42126042 C5.87262489,4.45994792 6.05126031,4.53844792 6.18438531,4.64994792 C6.32660405,4.76713542 6.43014572,4.91732292 6.49386447,5.0948125 C6.5405103,5.22565625 6.45517697,5.367875 6.31637489,5.38835417 L6.19918739,5.40541667 C6.09337489,5.42135417 5.98983323,5.35877083 5.95569781,5.25751042 C5.92724989,5.17445833 5.88970823,5.1061875 5.84305198,5.05384375 C5.73723948,4.934375 5.56998948,4.86723958 5.38453115,4.86723958 C5.18769782,4.86723958 5.00109366,4.94460417 4.88618741,5.07317708 C4.79174991,5.17898958 4.7462395,5.30072917 4.7462395,5.44522917 C4.7462395,5.58632292 4.78606241,5.70691667 4.86457283,5.80021875 C5.02841658,5.99705208 5.29692699,6.05166667 5.55634365,6.10401042 C5.70766656,6.13472917 5.86467698,6.16658333 6.00007281,6.22575 C6.14457281,6.28945833 6.26517697,6.36910417 6.35734364,6.46127083 C6.44949988,6.55342708 6.5223228,6.6649375 6.5723853,6.79236458 C6.62131238,6.91865625 6.64747905,7.05746875 6.64747905,7.205375 C6.64747905,7.52851042 6.54280197,7.80157292 6.33686447,8.01888542 C6.16733322,8.196375 5.93751031,8.31470833 5.67239573,8.36135417 L5.67239573,8.49561458 C5.67239573,8.61848958 5.57227073,8.71747917 5.45053115,8.71747917 L5.32992699,8.71747917 C5.20705199,8.71747917 5.10806241,8.61735417 5.10806241,8.49561458 L5.10806241,8.35566667 C4.96242699,8.32835417 4.8224895,8.28057292 4.69733325,8.21685417 C4.549427,8.140625 4.42085409,8.01661458 4.31389576,7.84820833 C4.24221867,7.7355625 4.19102076,7.60586458 4.15916659,7.46022917 C4.13299993,7.33735417 4.21492701,7.21788542 4.33893742,7.19626042 L4.45954159,7.17578125 C4.57444783,7.15530208 4.68482283,7.22697917 4.71326033,7.339625 C4.74739575,7.47275 4.79290616,7.57628125 4.84979158,7.64910417 C4.97722908,7.81294792 5.18771866,7.91079167 5.41298949,7.91079167 C5.45167699,7.91079167 5.48921865,7.90738542 5.52677073,7.90282292 C5.68833323,7.8789375 5.83169781,7.80269792 5.93295823,7.68778125 C6.03877072,7.56717708 6.09224989,7.41471875 6.09224989,7.23608333 C6.09224989,7.08247917 6.05470822,6.95960417 5.98074989,6.86971875 L5.98072906,6.86976042 Z M5.3924999,0.525520833 L5.39021865,0.525520833 L3.6551041,0.530072917 C3.33765619,0.531208333 3.14879161,0.8850625 3.32514577,1.14903125 L4.10338534,2.31638542 L6.68158321,2.31638542 L7.45982278,1.14903125 C7.63617695,0.8850625 7.44731237,0.53121875 7.12986446,0.530072917 L5.39247907,0.525520833 L5.3924999,0.525520833 Z" id="形状" fill="#18304E"></path>
                        </g>
                    </g>
                </g>
            </g>
        </g>
    </g>
</svg>