<?xml version="1.0" encoding="UTF-8"?>
<svg width="16px" height="16px" viewBox="0 0 16 16" version="1.1" xmlns="http://www.w3.org/2000/svg" xmlns:xlink="http://www.w3.org/1999/xlink">
    <g id="页面-1" stroke="none" stroke-width="1" fill="none" fill-rule="evenodd">
        <g id="风险交易" transform="translate(-570.000000, -264.000000)" fill-rule="nonzero">
            <g id="编组-6" transform="translate(355.000000, 212.000000)">
                <g id="标签-/-n备份-5" transform="translate(209.000000, 44.000000)">
                    <g id="BNB" transform="translate(6.000000, 8.000000)">
                        <path d="M0,8 C0,12.418278 3.58172194,16 8,16 C12.4182778,16 16,12.418278 16,8 C16,3.581722 12.4182778,0 8,0 C3.58172194,0 0,3.581722 0,8 Z" id="路径" fill="#F5F8FB"></path>
                        <g id="闪电" transform="translate(2.000000, 2.666667)">
                            <rect id="矩形" fill="#000000" opacity="0" x="0" y="0" width="11.9999998" height="12"></rect>
                            <path d="M9.93749982,4.21054687 L7.35585924,4.21054687 L9.67734358,1.27734375 C9.72539045,1.21523438 9.68203108,1.125 9.60351545,1.125 L5.10937491,1.125 C5.07656241,1.125 5.04492178,1.14257812 5.02851553,1.171875 L1.99218746,6.41601562 C1.95585934,6.478125 2.00039059,6.55664062 2.07304684,6.55664062 L4.1167968,6.55664062 L3.06914057,10.7472656 C3.04687495,10.8386719 3.15703119,10.903125 3.22499994,10.8375 L10.0019529,4.37109375 C10.0628904,4.31367187 10.0218748,4.21054687 9.93749982,4.21054687 Z" id="路径" fill="#18304E"></path>
                        </g>
                    </g>
                </g>
            </g>
        </g>
    </g>
</svg>