<?xml version="1.0" standalone="no"?><!DOCTYPE svg PUBLIC "-//W3C//DTD SVG 1.1//EN" "http://www.w3.org/Graphics/SVG/1.1/DTD/svg11.dtd"><svg t="1658730716431" class="icon" viewBox="0 0 1024 1024" version="1.1" xmlns="http://www.w3.org/2000/svg" p-id="3571" xmlns:xlink="http://www.w3.org/1999/xlink" width="200" height="200"><defs><style type="text/css">@font-face { font-family: feedback-iconfont; src: url("//at.alicdn.com/t/font_1031158_u69w8yhxdu.woff2?t=1630033759944") format("woff2"), url("//at.alicdn.com/t/font_1031158_u69w8yhxdu.woff?t=1630033759944") format("woff"), url("//at.alicdn.com/t/font_1031158_u69w8yhxdu.ttf?t=1630033759944") format("truetype"); }
@font-face { font-family: feedback-iconfont; src: url("//at.alicdn.com/t/font_1031158_u69w8yhxdu.woff2?t=1630033759944") format("woff2"), url("//at.alicdn.com/t/font_1031158_u69w8yhxdu.woff?t=1630033759944") format("woff"), url("//at.alicdn.com/t/font_1031158_u69w8yhxdu.ttf?t=1630033759944") format("truetype"); }
@font-face { font-family: feedback-iconfont; src: url("//at.alicdn.com/t/font_1031158_u69w8yhxdu.woff2?t=1630033759944") format("woff2"), url("//at.alicdn.com/t/font_1031158_u69w8yhxdu.woff?t=1630033759944") format("woff"), url("//at.alicdn.com/t/font_1031158_u69w8yhxdu.ttf?t=1630033759944") format("truetype"); }
@font-face { font-family: feedback-iconfont; src: url("//at.alicdn.com/t/font_1031158_1uhr8ri0pk5.eot?#iefix") format("embedded-opentype"), url("//at.alicdn.com/t/font_1031158_1uhr8ri0pk5.woff2") format("woff2"), url("//at.alicdn.com/t/font_1031158_1uhr8ri0pk5.woff") format("woff"), url("//at.alicdn.com/t/font_1031158_1uhr8ri0pk5.ttf") format("truetype"), url("//at.alicdn.com/t/font_1031158_1uhr8ri0pk5.svg#iconfont") format("svg"); }
@font-face { font-family: feedback-iconfont; src: url("//at.alicdn.com/t/font_1031158_1uhr8ri0pk5.eot?#iefix") format("embedded-opentype"), url("//at.alicdn.com/t/font_1031158_1uhr8ri0pk5.woff2") format("woff2"), url("//at.alicdn.com/t/font_1031158_1uhr8ri0pk5.woff") format("woff"), url("//at.alicdn.com/t/font_1031158_1uhr8ri0pk5.ttf") format("truetype"), url("//at.alicdn.com/t/font_1031158_1uhr8ri0pk5.svg#iconfont") format("svg"); }
@font-face { font-family: feedback-iconfont; src: url("//at.alicdn.com/t/font_1031158_u69w8yhxdu.woff2?t=1630033759944") format("woff2"), url("//at.alicdn.com/t/font_1031158_u69w8yhxdu.woff?t=1630033759944") format("woff"), url("//at.alicdn.com/t/font_1031158_u69w8yhxdu.ttf?t=1630033759944") format("truetype"); }
@font-face { font-family: feedback-iconfont; src: url("//at.alicdn.com/t/font_1031158_1uhr8ri0pk5.eot?#iefix") format("embedded-opentype"), url("//at.alicdn.com/t/font_1031158_1uhr8ri0pk5.woff2") format("woff2"), url("//at.alicdn.com/t/font_1031158_1uhr8ri0pk5.woff") format("woff"), url("//at.alicdn.com/t/font_1031158_1uhr8ri0pk5.ttf") format("truetype"), url("//at.alicdn.com/t/font_1031158_1uhr8ri0pk5.svg#iconfont") format("svg"); }
@font-face { font-family: feedback-iconfont; src: url("//at.alicdn.com/t/font_1031158_1uhr8ri0pk5.eot?#iefix") format("embedded-opentype"), url("//at.alicdn.com/t/font_1031158_1uhr8ri0pk5.woff2") format("woff2"), url("//at.alicdn.com/t/font_1031158_1uhr8ri0pk5.woff") format("woff"), url("//at.alicdn.com/t/font_1031158_1uhr8ri0pk5.ttf") format("truetype"), url("//at.alicdn.com/t/font_1031158_1uhr8ri0pk5.svg#iconfont") format("svg"); }
</style></defs><path d="M679.736889 603.534222c12.202667 0 18.602667 6.257778 18.602667 18.375111 0.056889 81.180444 0.056889 162.360889 0 243.512889 0 12.430222-6.371556 18.688-18.773334 18.716445-38.627556 0.028444-77.255111-0.085333-115.882666 0.056889-12.828444 0.056889-19.399111-7.537778-19.285334-19.114667 0.312889-40.590222 0.113778-81.180444 0.113778-121.742222l0.028444-123.022223c0-7.992889 4.323556-14.023111 11.434667-15.928888 2.389333-0.625778 4.949333-0.853333 7.395556-0.853334 38.798222-0.028444 77.568-0.056889 116.337777 0zM133.091556 695.722667c38.627556 0.312889 77.255111 0.113778 115.911111 0.142222 12.515556 0 18.659556 6.001778 18.688 18.602667 0.056889 49.208889 0.028444 98.417778 0 147.626666 0 12.288-6.030222 18.545778-18.375111 18.574222-39.054222 0.142222-78.108444 0.142222-117.162667 0-12.316444-0.056889-18.204444-6.343111-18.232889-18.688-0.056889-24.604444 0-49.208889 0-73.784888 0-24.462222 0.284444-48.924444-0.142222-73.386667-0.227556-13.653333 8.931556-19.143111 19.313778-19.057778z m677.688888-304.014223c26.680889-0.085333 53.390222 0 80.071112 0 13.312 0 19.342222 5.973333 19.342222 19.256889V860.16c0 3.328 0.199111 6.684444-1.024 9.870222a15.047111 15.047111 0 0 1-12.572445 10.183111 45.056 45.056 0 0 1-6.627555 0.512h-113.863111a24.035556 24.035556 0 0 1-10.211556-1.592889c-6.456889-2.958222-9.472-8.248889-9.500444-15.274666V412.558222c0-2.616889-0.142222-5.319111 0.284444-7.879111a14.848 14.848 0 0 1 13.653333-12.572444c13.482667-1.024 26.965333-0.341333 40.448-0.398223z m-354.133333 105.841778c10.865778 0 16.867556 4.010667 19.057778 12.515556 0.711111 2.56 0.426667 5.233778 0.426667 7.850666v342.442667c0 3.185778 0.284444 6.371556-0.881778 9.472a15.189333 15.189333 0 0 1-12.430222 10.353778 40.96 40.96 0 0 1-6.627556 0.540444H341.902222c-10.382222 0-16.128-3.584-18.716444-11.320889a24.263111 24.263111 0 0 1-0.881778-7.822222V517.063111c0-13.368889 6.001778-19.484444 19.2-19.512889h115.114667z" fill="#18304E" p-id="3572"></path><path d="M855.978667 173.056c0 12.8-4.551111 21.902222-12.8 29.411556l-102.542223 94.264888-108.316444 99.669334c-12.942222 11.889778-28.643556 13.141333-42.837333 2.645333-43.406222-32.142222-86.641778-64.483556-129.962667-96.768-18.574222-13.852444-37.205333-27.676444-55.722667-41.642667-2.218667-1.678222-3.470222-1.507556-5.518222 0.256-63.146667 54.243556-126.350222 108.401778-189.525333 162.616889-9.841778 8.448-20.736 9.870222-32.597334 5.290667-11.946667-4.608-19.228444-13.084444-21.248-25.884444a37.063111 37.063111 0 0 1 3.128889-23.096889 24.775111 24.775111 0 0 1 6.115556-7.793778c70.371556-60.131556 140.657778-120.32 211.114667-180.366222 10.581333-9.016889 22.727111-13.767111 36.949333-9.756445 5.489778 1.536 9.784889 5.091556 14.193778 8.448 60.017778 45.795556 120.064 91.648 180.053333 137.557334 2.332444 1.820444 3.470222 1.877333 5.688889-0.199112 57.912889-53.902222 115.882667-107.719111 173.852444-161.536 5.603556-5.205333 11.093333-10.524444 16.867556-15.530666a32.540444 32.540444 0 0 1 41.728-1.649778c8.561778 6.4 10.922667 15.644444 11.377778 24.064" fill="#1CD2A9" p-id="3573"></path></svg>