<?xml version="1.0" standalone="no"?><!DOCTYPE svg PUBLIC "-//W3C//DTD SVG 1.1//EN" "http://www.w3.org/Graphics/SVG/1.1/DTD/svg11.dtd"><svg t="1653876723858" class="icon" viewBox="0 0 1024 1024" version="1.1" xmlns="http://www.w3.org/2000/svg" p-id="3401" xmlns:xlink="http://www.w3.org/1999/xlink" width="200" height="200"><defs><style type="text/css">@font-face { font-family: feedback-iconfont; src: url("//at.alicdn.com/t/font_1031158_u69w8yhxdu.woff2?t=1630033759944") format("woff2"), url("//at.alicdn.com/t/font_1031158_u69w8yhxdu.woff?t=1630033759944") format("woff"), url("//at.alicdn.com/t/font_1031158_u69w8yhxdu.ttf?t=1630033759944") format("truetype"); }
@font-face { font-family: feedback-iconfont; src: url("//at.alicdn.com/t/font_1031158_u69w8yhxdu.woff2?t=1630033759944") format("woff2"), url("//at.alicdn.com/t/font_1031158_u69w8yhxdu.woff?t=1630033759944") format("woff"), url("//at.alicdn.com/t/font_1031158_u69w8yhxdu.ttf?t=1630033759944") format("truetype"); }
@font-face { font-family: feedback-iconfont; src: url("//at.alicdn.com/t/font_1031158_1uhr8ri0pk5.eot?#iefix") format("embedded-opentype"), url("//at.alicdn.com/t/font_1031158_1uhr8ri0pk5.woff2") format("woff2"), url("//at.alicdn.com/t/font_1031158_1uhr8ri0pk5.woff") format("woff"), url("//at.alicdn.com/t/font_1031158_1uhr8ri0pk5.ttf") format("truetype"), url("//at.alicdn.com/t/font_1031158_1uhr8ri0pk5.svg#iconfont") format("svg"); }
@font-face { font-family: feedback-iconfont; src: url("//at.alicdn.com/t/font_1031158_1uhr8ri0pk5.eot?#iefix") format("embedded-opentype"), url("//at.alicdn.com/t/font_1031158_1uhr8ri0pk5.woff2") format("woff2"), url("//at.alicdn.com/t/font_1031158_1uhr8ri0pk5.woff") format("woff"), url("//at.alicdn.com/t/font_1031158_1uhr8ri0pk5.ttf") format("truetype"), url("//at.alicdn.com/t/font_1031158_1uhr8ri0pk5.svg#iconfont") format("svg"); }
</style></defs><path d="M512 512m-480 0a480 480 0 1 0 960 0 480 480 0 1 0-960 0Z" fill="#18304E" p-id="3402"></path><path d="M751.84 281.792c4.672 0.096 8.64 4.576 8.736 9.632 0.16 6.496 0.128 12.992 0 19.52-0.096 5.856-4.192 9.824-10.144 9.92-8.32 0.096-16.64-0.192-24.8 2.08-25.6 7.168-42.784 29.248-43.392 56.064-0.16 5.824 0.064 11.68-0.128 17.536-0.064 2.304 0.832 2.624 2.816 2.624 13.888 0 27.776-0.416 41.6 0.224 26.976 1.248 49.6 12.32 67.68 32.32 14.016 15.488 22.176 33.76 24.416 54.624 0.064 0.48 0.384 0.96 0.576 1.408v116.352c-1.408 6.176-1.92 12.512-3.936 18.56-12.416 37.376-37.76 60.416-76.416 68.576-4.896 1.024-9.824 1.28-14.816 1.28-139.84-0.032-279.68 0.096-419.52-0.16-18.208-0.032-33.92-7.904-47.232-20.16-17.056-15.68-25.376-35.424-25.504-58.528-0.128-25.44-0.32-50.88 0.032-76.352a58.976 58.976 0 0 0-43.296-57.76c-7.68-2.08-15.584-2.176-23.488-2.048-3.52 0.064-6.656-0.576-9.024-3.392a9.28 9.28 0 0 1-2.4-6.208c0.032-6.72-0.032-13.44 0.032-20.16a9.504 9.504 0 0 1 8.576-9.376c22.976-1.28 44.704 2.784 64.288 15.616 9.6 6.272 17.856 13.984 24.96 23.296 4.48-5.632 9.216-10.912 14.688-15.488 17.92-15.04 38.496-23.072 61.984-23.424 3.776-0.064 7.584-0.096 11.36-0.032 5.664 0.096 9.728 3.872 9.824 9.44 0.16 6.72 0.16 13.44 0 20.16a9.312 9.312 0 0 1-9.408 9.472c-8.096 0.256-16.192-0.064-24.224 1.824a58.88 58.88 0 0 0-44.48 56.48c0 26.4-0.032 52.832 0.032 79.264 0.064 15.648 9.76 29.76 24.16 35.712 2.368 0.992 3.392 0.64 4.48-1.792 18.336-39.808 36.032-79.936 55.36-119.264 26.496-53.952 68.48-91.776 124.288-114.176a230.4 230.4 0 0 1 87.584-16.32c24.256 0.064 48.512-0.032 72.768 0.064 2.56 0 3.296-0.64 3.2-3.2-0.32-9.824 0.704-19.744-1.6-29.44a58.496 58.496 0 0 0-56.864-45.6c-3.232-0.064-6.496-0.064-9.728-0.096-5.952-0.128-10.144-3.968-10.304-9.856a358.592 358.592 0 0 1 0-19.488c0.16-5.824 4.48-9.664 10.272-9.824 15.68-0.48 31.04 0.896 45.76 6.912 15.84 6.496 29.216 16.224 39.904 29.6 1.6 1.984 2.336 2.272 4.096 0.096a97.088 97.088 0 0 1 62.912-35.808c8.064-1.216 16.224-0.896 24.32-0.704z m-35.136 195.712a24.544 24.544 0 0 0-24.672 24.384 24.32 24.32 0 0 0 23.936 24.32 24 24 0 0 0 24.736-24.064 24.32 24.32 0 0 0-24-24.64z" fill="#0ED9AC" p-id="3403"></path></svg>