<?xml version="1.0" standalone="no"?><!DOCTYPE svg PUBLIC "-//W3C//DTD SVG 1.1//EN" "http://www.w3.org/Graphics/SVG/1.1/DTD/svg11.dtd"><svg t="1658730672765" class="icon" viewBox="0 0 1024 1024" version="1.1" xmlns="http://www.w3.org/2000/svg" p-id="3273" xmlns:xlink="http://www.w3.org/1999/xlink" width="200" height="200"><defs><style type="text/css">@font-face { font-family: feedback-iconfont; src: url("//at.alicdn.com/t/font_1031158_u69w8yhxdu.woff2?t=1630033759944") format("woff2"), url("//at.alicdn.com/t/font_1031158_u69w8yhxdu.woff?t=1630033759944") format("woff"), url("//at.alicdn.com/t/font_1031158_u69w8yhxdu.ttf?t=1630033759944") format("truetype"); }
@font-face { font-family: feedback-iconfont; src: url("//at.alicdn.com/t/font_1031158_u69w8yhxdu.woff2?t=1630033759944") format("woff2"), url("//at.alicdn.com/t/font_1031158_u69w8yhxdu.woff?t=1630033759944") format("woff"), url("//at.alicdn.com/t/font_1031158_u69w8yhxdu.ttf?t=1630033759944") format("truetype"); }
@font-face { font-family: feedback-iconfont; src: url("//at.alicdn.com/t/font_1031158_u69w8yhxdu.woff2?t=1630033759944") format("woff2"), url("//at.alicdn.com/t/font_1031158_u69w8yhxdu.woff?t=1630033759944") format("woff"), url("//at.alicdn.com/t/font_1031158_u69w8yhxdu.ttf?t=1630033759944") format("truetype"); }
@font-face { font-family: feedback-iconfont; src: url("//at.alicdn.com/t/font_1031158_1uhr8ri0pk5.eot?#iefix") format("embedded-opentype"), url("//at.alicdn.com/t/font_1031158_1uhr8ri0pk5.woff2") format("woff2"), url("//at.alicdn.com/t/font_1031158_1uhr8ri0pk5.woff") format("woff"), url("//at.alicdn.com/t/font_1031158_1uhr8ri0pk5.ttf") format("truetype"), url("//at.alicdn.com/t/font_1031158_1uhr8ri0pk5.svg#iconfont") format("svg"); }
@font-face { font-family: feedback-iconfont; src: url("//at.alicdn.com/t/font_1031158_1uhr8ri0pk5.eot?#iefix") format("embedded-opentype"), url("//at.alicdn.com/t/font_1031158_1uhr8ri0pk5.woff2") format("woff2"), url("//at.alicdn.com/t/font_1031158_1uhr8ri0pk5.woff") format("woff"), url("//at.alicdn.com/t/font_1031158_1uhr8ri0pk5.ttf") format("truetype"), url("//at.alicdn.com/t/font_1031158_1uhr8ri0pk5.svg#iconfont") format("svg"); }
@font-face { font-family: feedback-iconfont; src: url("//at.alicdn.com/t/font_1031158_u69w8yhxdu.woff2?t=1630033759944") format("woff2"), url("//at.alicdn.com/t/font_1031158_u69w8yhxdu.woff?t=1630033759944") format("woff"), url("//at.alicdn.com/t/font_1031158_u69w8yhxdu.ttf?t=1630033759944") format("truetype"); }
@font-face { font-family: feedback-iconfont; src: url("//at.alicdn.com/t/font_1031158_1uhr8ri0pk5.eot?#iefix") format("embedded-opentype"), url("//at.alicdn.com/t/font_1031158_1uhr8ri0pk5.woff2") format("woff2"), url("//at.alicdn.com/t/font_1031158_1uhr8ri0pk5.woff") format("woff"), url("//at.alicdn.com/t/font_1031158_1uhr8ri0pk5.ttf") format("truetype"), url("//at.alicdn.com/t/font_1031158_1uhr8ri0pk5.svg#iconfont") format("svg"); }
@font-face { font-family: feedback-iconfont; src: url("//at.alicdn.com/t/font_1031158_1uhr8ri0pk5.eot?#iefix") format("embedded-opentype"), url("//at.alicdn.com/t/font_1031158_1uhr8ri0pk5.woff2") format("woff2"), url("//at.alicdn.com/t/font_1031158_1uhr8ri0pk5.woff") format("woff"), url("//at.alicdn.com/t/font_1031158_1uhr8ri0pk5.ttf") format("truetype"), url("//at.alicdn.com/t/font_1031158_1uhr8ri0pk5.svg#iconfont") format("svg"); }
</style></defs><path d="M934.4 543.914667a31.914667 31.914667 0 0 0-27.349333-15.189334c-66.816 0-130.645333 30.378667-170.112 85.034667l-27.306667 36.437333c-33.450667 39.509333-85.077333 60.757333-136.746667 60.757334h-91.136c-18.218667 0-30.378667-12.117333-30.378666-30.378667 0-18.218667 12.16-30.378667 30.378666-30.378667h57.728c48.64 0 94.165333-39.466667 94.165334-88.064v-3.029333c0-15.189333-15.189333-30.378667-30.378667-30.378667H417.962667c-109.354667 0-197.461333 48.597333-246.058667 127.573334l-82.005333 127.573333a27.605333 27.605333 0 0 0 0 30.378667l91.136 151.893333c2.986667 6.058667 12.16 12.16 18.218666 15.189333h6.058667c6.101333 0 12.16-3.029333 18.218667-6.058666a700.288 700.288 0 0 1 385.834666-115.456c100.266667 0 191.36-54.656 239.957334-142.762667l82.005333-145.834667c6.101333-6.058667 6.101333-18.218667 3.072-27.306666z" fill="#18304E" p-id="3274"></path><path d="M417.962667 467.968h185.301333c48.64 0 91.136 39.466667 91.136 88.064v12.16a276.992 276.992 0 0 1 112.384-82.005333c48.64-88.106667 69.888-200.533333 69.888-343.253334 0-9.130667-6.058667-18.261333-12.16-24.32-9.088-6.058667-18.218667-6.058667-27.306667-3.029333-100.266667 33.408-200.533333 6.058667-273.408-63.786667a29.354667 29.354667 0 0 0-42.538666 0C448.341333 121.6 348.117333 148.992 247.850667 115.584c-9.130667-3.029333-18.218667-3.029333-27.306667 2.986667-6.101333 6.101333-12.202667 15.232-12.202667 24.32 0 142.805333 24.32 258.218667 75.946667 349.354666a373.845333 373.845333 0 0 1 133.674667-24.32z" fill="#1CD2A9" p-id="3275"></path></svg>