<?xml version="1.0" standalone="no"?><!DOCTYPE svg PUBLIC "-//W3C//DTD SVG 1.1//EN" "http://www.w3.org/Graphics/SVG/1.1/DTD/svg11.dtd"><svg t="1653540529214" class="icon" viewBox="0 0 1024 1024" version="1.1" xmlns="http://www.w3.org/2000/svg" p-id="3934" xmlns:xlink="http://www.w3.org/1999/xlink" width="200" height="200"><defs><style type="text/css">@font-face { font-family: feedback-iconfont; src: url("//at.alicdn.com/t/font_1031158_u69w8yhxdu.woff2?t=1630033759944") format("woff2"), url("//at.alicdn.com/t/font_1031158_u69w8yhxdu.woff?t=1630033759944") format("woff"), url("//at.alicdn.com/t/font_1031158_u69w8yhxdu.ttf?t=1630033759944") format("truetype"); }
@font-face { font-family: feedback-iconfont; src: url("//at.alicdn.com/t/font_1031158_u69w8yhxdu.woff2?t=1630033759944") format("woff2"), url("//at.alicdn.com/t/font_1031158_u69w8yhxdu.woff?t=1630033759944") format("woff"), url("//at.alicdn.com/t/font_1031158_u69w8yhxdu.ttf?t=1630033759944") format("truetype"); }
@font-face { font-family: feedback-iconfont; src: url("//at.alicdn.com/t/font_1031158_1uhr8ri0pk5.eot?#iefix") format("embedded-opentype"), url("//at.alicdn.com/t/font_1031158_1uhr8ri0pk5.woff2") format("woff2"), url("//at.alicdn.com/t/font_1031158_1uhr8ri0pk5.woff") format("woff"), url("//at.alicdn.com/t/font_1031158_1uhr8ri0pk5.ttf") format("truetype"), url("//at.alicdn.com/t/font_1031158_1uhr8ri0pk5.svg#iconfont") format("svg"); }
@font-face { font-family: feedback-iconfont; src: url("//at.alicdn.com/t/font_1031158_1uhr8ri0pk5.eot?#iefix") format("embedded-opentype"), url("//at.alicdn.com/t/font_1031158_1uhr8ri0pk5.woff2") format("woff2"), url("//at.alicdn.com/t/font_1031158_1uhr8ri0pk5.woff") format("woff"), url("//at.alicdn.com/t/font_1031158_1uhr8ri0pk5.ttf") format("truetype"), url("//at.alicdn.com/t/font_1031158_1uhr8ri0pk5.svg#iconfont") format("svg"); }
</style></defs><path d="M61.738667 517.290667c0 248.96 201.813333 450.816 450.816 450.816S963.413333 766.250667 963.413333 517.290667c0-249.002667-201.813333-450.816-450.816-450.816-248.96 0-450.816 201.813333-450.816 450.816z" fill="#F4CC29" p-id="3935"></path><path d="M640.597333 553.216a214.912 214.912 0 0 0-29.226666-26.282667l0.298666-0.469333a183.168 183.168 0 0 0-49.877333-26.026667 130.773333 130.773333 0 0 0 44.117333-54.613333c-1.066667 7.893333 6.058667-15.957333 6.058667-39.893333 0-31.829333-13.568-62.890667-37.034667-84.224a115.328 115.328 0 0 0-87.765333-29.610667c-20.181333 2.133333-38.528 8.96-54.314667 19.370667-6.442667 3.413333-18.005333 14.421333-27.733333 27.306666-19.370667 26.069333-25.514667 60.032-19.2 91.306667 5.674667 28.458667 23.765333 53.930667 47.445333 70.485333a197.674667 197.674667 0 0 0-120.021333 121.429334 189.013333 189.013333 0 0 0-10.154667 61.866666c0 7.68 6.058667 14.378667 13.568 15.189334h172.16a148.906667 148.906667 0 0 1 148.821334-145.92c0.981333 0 1.877333 0 2.858666 0.085333z m-80 90.282667h152.746667l1.664-0.085334h0.042667c0.554667-0.042667 1.066667-0.170667 1.578666-0.256h0.128l1.493334-0.426666h0.170666c0.426667-0.170667 0.853333-0.384 1.322667-0.512 0.042667-0.085333 0.170667-0.085333 0.213333-0.128l1.194667-0.597334 0.298667-0.128 1.066666-0.725333 0.298667-0.256 0.938667-0.725333 0.298666-0.256 0.896-0.896 0.170667-0.170667 0.085333-0.085333 0.810667-0.981334c0-0.128 0.085333-0.170667 0.128-0.256a8.234667 8.234667 0 0 0 0.725333-1.109333l0.128-0.213333c0.213333-0.426667 0.426667-0.725333 0.597334-1.152l0.085333-0.170667a9.301333 9.301333 0 0 0 0.512-1.28l0.042667-0.128 0.384-1.28v-0.170667a9.344 9.344 0 0 0 0.213333-1.28l0.085333-0.213333 0.085334-1.152v-0.768l-0.042667-0.725333v-0.384c-0.042667-0.426667-0.042667-0.768-0.170667-1.194667v-0.298667l-0.298666-1.194666-0.042667-0.256-0.341333-1.152-0.128-0.298667-0.426667-1.109333-0.170667-0.341334c-0.128-0.341333-0.341333-0.64-0.512-0.938666l-0.213333-0.341334-0.597333-0.896a1.536 1.536 0 0 1-0.256-0.384l-0.682667-0.853333-0.341333-0.298667a6.4 6.4 0 0 0-0.853334-0.768l-0.128-0.170666-40.917333-36.138667a15.488 15.488 0 0 0-20.48 23.210667l10.24 9.045333H560.64c-8.533333 0-15.488 6.954667-15.488 15.488 0.042667 8.533333 6.954667 15.402667 15.488 15.402667z m153.472 18.005333h-152.832l-0.554666 0.042667-0.64 0.042666-0.938667 0.128c-0.213333 0-0.341333 0-0.554667 0.085334-0.298667 0.042667-0.64 0.085333-0.938666 0.213333l-0.512 0.128-0.938667 0.298667-0.512 0.213333-0.896 0.341333-0.512 0.256-0.810667 0.426667a4.394667 4.394667 0 0 0-0.469333 0.341333l-0.768 0.469334-0.512 0.341333-0.682667 0.597333a9.6 9.6 0 0 0-1.109333 1.152c0 0.128-0.128 0.170667-0.170667 0.256l-0.128 0.170667a5.461333 5.461333 0 0 0-0.64 0.853333l-0.298666 0.426667c-0.213333 0.256-0.426667 0.512-0.554667 0.810667l-0.256 0.426666-0.426667 0.938667c-0.128 0.128-0.170667 0.298667-0.256 0.469333-0.170667 0.298667-0.256 0.597333-0.341333 0.896l-0.213333 0.512-0.256 0.896-0.128 0.597334-0.170667 0.853333a2.944 2.944 0 0 0-0.085333 0.682667l-0.042667 0.768-0.085333 0.768v0.810666c0 0.213333 0 0.469333 0.085333 0.725334 0 0.256 0 0.554667 0.085333 0.810666l0.085334 0.682667a23.893333 23.893333 0 0 0 0.170666 0.853333l0.128 0.597334c0.128 0.256 0.170667 0.554667 0.256 0.853333l0.256 0.597333a9.813333 9.813333 0 0 0 0.64 1.408l0.341334 0.597334 0.469333 0.725333 0.341333 0.512 0.512 0.725333 0.426667 0.554667 0.554667 0.597333 0.554666 0.554667 0.341334 0.341333 40.917333 36.138667a15.402667 15.402667 0 0 0 21.845333-1.365333 15.488 15.488 0 0 0-1.365333-21.845334l-10.24-9.301333h111.786667a15.530667 15.530667 0 0 0 0-30.976z" fill="#18304E" p-id="3936"></path></svg>