<?xml version="1.0" standalone="no"?><!DOCTYPE svg PUBLIC "-//W3C//DTD SVG 1.1//EN" "http://www.w3.org/Graphics/SVG/1.1/DTD/svg11.dtd"><svg t="1653540520109" class="icon" viewBox="0 0 1024 1024" version="1.1" xmlns="http://www.w3.org/2000/svg" p-id="3511" xmlns:xlink="http://www.w3.org/1999/xlink" width="200" height="200"><defs><style type="text/css">@font-face { font-family: feedback-iconfont; src: url("//at.alicdn.com/t/font_1031158_u69w8yhxdu.woff2?t=1630033759944") format("woff2"), url("//at.alicdn.com/t/font_1031158_u69w8yhxdu.woff?t=1630033759944") format("woff"), url("//at.alicdn.com/t/font_1031158_u69w8yhxdu.ttf?t=1630033759944") format("truetype"); }
@font-face { font-family: feedback-iconfont; src: url("//at.alicdn.com/t/font_1031158_u69w8yhxdu.woff2?t=1630033759944") format("woff2"), url("//at.alicdn.com/t/font_1031158_u69w8yhxdu.woff?t=1630033759944") format("woff"), url("//at.alicdn.com/t/font_1031158_u69w8yhxdu.ttf?t=1630033759944") format("truetype"); }
@font-face { font-family: feedback-iconfont; src: url("//at.alicdn.com/t/font_1031158_1uhr8ri0pk5.eot?#iefix") format("embedded-opentype"), url("//at.alicdn.com/t/font_1031158_1uhr8ri0pk5.woff2") format("woff2"), url("//at.alicdn.com/t/font_1031158_1uhr8ri0pk5.woff") format("woff"), url("//at.alicdn.com/t/font_1031158_1uhr8ri0pk5.ttf") format("truetype"), url("//at.alicdn.com/t/font_1031158_1uhr8ri0pk5.svg#iconfont") format("svg"); }
@font-face { font-family: feedback-iconfont; src: url("//at.alicdn.com/t/font_1031158_1uhr8ri0pk5.eot?#iefix") format("embedded-opentype"), url("//at.alicdn.com/t/font_1031158_1uhr8ri0pk5.woff2") format("woff2"), url("//at.alicdn.com/t/font_1031158_1uhr8ri0pk5.woff") format("woff"), url("//at.alicdn.com/t/font_1031158_1uhr8ri0pk5.ttf") format("truetype"), url("//at.alicdn.com/t/font_1031158_1uhr8ri0pk5.svg#iconfont") format("svg"); }
</style></defs><path d="M61.738667 517.290667c0 248.96 201.813333 450.816 450.816 450.816S963.413333 766.250667 963.413333 517.290667c0-249.002667-201.813333-450.816-450.816-450.816-248.96 0-450.816 201.813333-450.816 450.816z" fill="#F4CC29" p-id="3512"></path><path d="M430.378667 533.845333v159.36c0 13.952 11.306667 25.258667 25.258666 25.258667h13.738667a25.258667 25.258667 0 0 0 25.258667-25.258667V561.92l-50.645334-50.517333a25.258667 25.258667 0 0 0-13.610666 22.4z m170.581333-70.912l-52.778667 52.693334v177.578666c0 13.952 11.306667 25.258667 25.258667 25.258667h13.525333a25.258667 25.258667 0 0 0 25.301334-25.258667v-209.237333a25.258667 25.258667 0 0 0-11.306667-21.034667zM312.789333 416.554667v276.650666c0 13.952 11.306667 25.258667 25.258667 25.258667h13.738667a25.258667 25.258667 0 0 0 25.258666-25.258667V444.586667L326.442667 394.112a25.258667 25.258667 0 0 0-13.653334 22.442667z m481.450667 9.685333c-0.170667-10.24-12.245333-15.36-22.4-5.290667l-32.853333 32.768-111.530667-115.029333a14.293333 14.293333 0 0 0-7.722667-4.138667l-2.389333-2.432a14.293333 14.293333 0 0 0-20.138667-0.298666l-100.010666 96.810666-160.725334-158.848a14.293333 14.293333 0 0 0-20.096 0V320l172.373334 170.410667c5.632 5.504 14.677333 5.461333 20.181333-0.128l15.061333-15.146667a14.08 14.08 0 0 0 3.712-6.656l80.213334-77.653333 95.445333 98.474666-31.658667 31.573334c-10.112 10.112-5.12 22.357333 5.12 22.485333l96.938667 2.176c10.282667 0.170667 22.954667-12.458667 22.784-22.698667l-2.304-96.597333z m-93.226667 160.554667h-9.984a25.258667 25.258667 0 0 0-25.258666 25.258666v81.152c0 13.952 11.306667 25.258667 25.258666 25.258667h9.984a25.258667 25.258667 0 0 0 25.258667-25.258667v-81.152a25.258667 25.258667 0 0 0-25.258667-25.258666z" fill="#18304E" p-id="3513"></path></svg>