<?xml version="1.0" standalone="no"?><!DOCTYPE svg PUBLIC "-//W3C//DTD SVG 1.1//EN" "http://www.w3.org/Graphics/SVG/1.1/DTD/svg11.dtd"><svg t="1653540526266" class="icon" viewBox="0 0 1024 1024" version="1.1" xmlns="http://www.w3.org/2000/svg" p-id="3793" xmlns:xlink="http://www.w3.org/1999/xlink" width="200" height="200"><defs><style type="text/css">@font-face { font-family: feedback-iconfont; src: url("//at.alicdn.com/t/font_1031158_u69w8yhxdu.woff2?t=1630033759944") format("woff2"), url("//at.alicdn.com/t/font_1031158_u69w8yhxdu.woff?t=1630033759944") format("woff"), url("//at.alicdn.com/t/font_1031158_u69w8yhxdu.ttf?t=1630033759944") format("truetype"); }
@font-face { font-family: feedback-iconfont; src: url("//at.alicdn.com/t/font_1031158_u69w8yhxdu.woff2?t=1630033759944") format("woff2"), url("//at.alicdn.com/t/font_1031158_u69w8yhxdu.woff?t=1630033759944") format("woff"), url("//at.alicdn.com/t/font_1031158_u69w8yhxdu.ttf?t=1630033759944") format("truetype"); }
@font-face { font-family: feedback-iconfont; src: url("//at.alicdn.com/t/font_1031158_1uhr8ri0pk5.eot?#iefix") format("embedded-opentype"), url("//at.alicdn.com/t/font_1031158_1uhr8ri0pk5.woff2") format("woff2"), url("//at.alicdn.com/t/font_1031158_1uhr8ri0pk5.woff") format("woff"), url("//at.alicdn.com/t/font_1031158_1uhr8ri0pk5.ttf") format("truetype"), url("//at.alicdn.com/t/font_1031158_1uhr8ri0pk5.svg#iconfont") format("svg"); }
@font-face { font-family: feedback-iconfont; src: url("//at.alicdn.com/t/font_1031158_1uhr8ri0pk5.eot?#iefix") format("embedded-opentype"), url("//at.alicdn.com/t/font_1031158_1uhr8ri0pk5.woff2") format("woff2"), url("//at.alicdn.com/t/font_1031158_1uhr8ri0pk5.woff") format("woff"), url("//at.alicdn.com/t/font_1031158_1uhr8ri0pk5.ttf") format("truetype"), url("//at.alicdn.com/t/font_1031158_1uhr8ri0pk5.svg#iconfont") format("svg"); }
</style></defs><path d="M61.738667 517.290667c0 248.96 201.813333 450.816 450.816 450.816S963.413333 766.250667 963.413333 517.290667c0-249.002667-201.813333-450.816-450.816-450.816-248.96 0-450.816 201.813333-450.816 450.816z" fill="#F4CC29" p-id="3794"></path><path d="M565.333333 412.885333c11.904 0 23.381333 4.522667 32 12.714667 9.813333 9.813333 128 103.893333 128 212.394667 0 87.125333-91.52 127.018667-138.666666 127.018666h-149.333334c-47.146667 0-138.666667-39.893333-138.666666-127.018666 0-108.501333 118.186667-202.581333 128-212.394667 8.618667-8.192 20.096-12.714667 32-12.714667zM528.384 512h-59.733333a6.613333 6.613333 0 0 0-6.186667 4.266667l-35.370667 92.885333a6.613333 6.613333 0 0 0 6.229334 8.96h35.584l-17.706667 66.858667c-1.792 6.784 6.826667 11.349333 11.392 6.058666l95.104-108.330666a6.613333 6.613333 0 0 0-4.992-11.008h-38.784l20.608-50.56a6.613333 6.613333 0 0 0-6.144-9.130667zM512 298.666667c20.053333 0 22.186667 10.666667 32 21.333333 9.813333 10.666667 24.533333-1.621333 32-10.666667 7.466667-9.088 37.546667-13.952 32 20.394667-5.546667 34.346667-26.154667 61.952-42.666667 61.952h-106.666666c-16.64 0-37.333333-28.586667-42.666667-62.933333s24.021333-28.501333 32-19.413334c8.021333 9.045333 22.314667 21.333333 32 10.666667 9.685333-10.666667 11.946667-21.333333 32-21.333333z" fill="#18304E" p-id="3795"></path></svg>