<?xml version="1.0" standalone="no"?><!DOCTYPE svg PUBLIC "-//W3C//DTD SVG 1.1//EN" "http://www.w3.org/Graphics/SVG/1.1/DTD/svg11.dtd"><svg t="1658730722206" class="icon" viewBox="0 0 1024 1024" version="1.1" xmlns="http://www.w3.org/2000/svg" p-id="3720" xmlns:xlink="http://www.w3.org/1999/xlink" width="200" height="200"><defs><style type="text/css">@font-face { font-family: feedback-iconfont; src: url("//at.alicdn.com/t/font_1031158_u69w8yhxdu.woff2?t=1630033759944") format("woff2"), url("//at.alicdn.com/t/font_1031158_u69w8yhxdu.woff?t=1630033759944") format("woff"), url("//at.alicdn.com/t/font_1031158_u69w8yhxdu.ttf?t=1630033759944") format("truetype"); }
@font-face { font-family: feedback-iconfont; src: url("//at.alicdn.com/t/font_1031158_u69w8yhxdu.woff2?t=1630033759944") format("woff2"), url("//at.alicdn.com/t/font_1031158_u69w8yhxdu.woff?t=1630033759944") format("woff"), url("//at.alicdn.com/t/font_1031158_u69w8yhxdu.ttf?t=1630033759944") format("truetype"); }
@font-face { font-family: feedback-iconfont; src: url("//at.alicdn.com/t/font_1031158_u69w8yhxdu.woff2?t=1630033759944") format("woff2"), url("//at.alicdn.com/t/font_1031158_u69w8yhxdu.woff?t=1630033759944") format("woff"), url("//at.alicdn.com/t/font_1031158_u69w8yhxdu.ttf?t=1630033759944") format("truetype"); }
@font-face { font-family: feedback-iconfont; src: url("//at.alicdn.com/t/font_1031158_1uhr8ri0pk5.eot?#iefix") format("embedded-opentype"), url("//at.alicdn.com/t/font_1031158_1uhr8ri0pk5.woff2") format("woff2"), url("//at.alicdn.com/t/font_1031158_1uhr8ri0pk5.woff") format("woff"), url("//at.alicdn.com/t/font_1031158_1uhr8ri0pk5.ttf") format("truetype"), url("//at.alicdn.com/t/font_1031158_1uhr8ri0pk5.svg#iconfont") format("svg"); }
@font-face { font-family: feedback-iconfont; src: url("//at.alicdn.com/t/font_1031158_1uhr8ri0pk5.eot?#iefix") format("embedded-opentype"), url("//at.alicdn.com/t/font_1031158_1uhr8ri0pk5.woff2") format("woff2"), url("//at.alicdn.com/t/font_1031158_1uhr8ri0pk5.woff") format("woff"), url("//at.alicdn.com/t/font_1031158_1uhr8ri0pk5.ttf") format("truetype"), url("//at.alicdn.com/t/font_1031158_1uhr8ri0pk5.svg#iconfont") format("svg"); }
@font-face { font-family: feedback-iconfont; src: url("//at.alicdn.com/t/font_1031158_u69w8yhxdu.woff2?t=1630033759944") format("woff2"), url("//at.alicdn.com/t/font_1031158_u69w8yhxdu.woff?t=1630033759944") format("woff"), url("//at.alicdn.com/t/font_1031158_u69w8yhxdu.ttf?t=1630033759944") format("truetype"); }
@font-face { font-family: feedback-iconfont; src: url("//at.alicdn.com/t/font_1031158_1uhr8ri0pk5.eot?#iefix") format("embedded-opentype"), url("//at.alicdn.com/t/font_1031158_1uhr8ri0pk5.woff2") format("woff2"), url("//at.alicdn.com/t/font_1031158_1uhr8ri0pk5.woff") format("woff"), url("//at.alicdn.com/t/font_1031158_1uhr8ri0pk5.ttf") format("truetype"), url("//at.alicdn.com/t/font_1031158_1uhr8ri0pk5.svg#iconfont") format("svg"); }
@font-face { font-family: feedback-iconfont; src: url("//at.alicdn.com/t/font_1031158_1uhr8ri0pk5.eot?#iefix") format("embedded-opentype"), url("//at.alicdn.com/t/font_1031158_1uhr8ri0pk5.woff2") format("woff2"), url("//at.alicdn.com/t/font_1031158_1uhr8ri0pk5.woff") format("woff"), url("//at.alicdn.com/t/font_1031158_1uhr8ri0pk5.ttf") format("truetype"), url("//at.alicdn.com/t/font_1031158_1uhr8ri0pk5.svg#iconfont") format("svg"); }
</style></defs><path d="M516.835556 85.361778c-31.402667 1.137778-57.287111 29.240889-54.385778 60.586666 0.711111 7.765333-1.877333 10.382222-7.566222 13.653334-71.395556 40.96-142.620444 82.090667-213.873778 123.249778-2.531556 1.450667-4.096 1.536-6.684445-0.398223-17.521778-13.084444-36.807111-16.213333-57.002666-7.537777-20.081778 8.590222-31.971556 24.177778-34.531556 46.08a56.376889 56.376889 0 0 0 35.214222 59.335111c2.759111 1.137778 3.527111 2.332444 3.527111 5.176889-0.056889 84.337778-0.085333 168.675556 0.028445 252.984888 0 3.128889-0.995556 4.266667-3.811556 5.432889-24.917333 10.524444-37.262222 33.848889-35.328 56.32 2.360889 28.16 21.219556 48.469333 47.616 52.992 16.497778 2.844444 31.260444-1.28 44.316445-11.434666 2.56-1.991111 4.152889-1.848889 6.684444-0.369778 72.789333 42.126222 145.607111 84.224 218.453334 126.236444 2.759111 1.592889 3.925333 3.128889 3.328 6.4-5.205333 28.984889 17.294222 59.733333 46.592 63.914667 31.914667 4.551111 59.335111-14.279111 66.190222-45.511111a40.96 40.96 0 0 0 0.199111-19.143111c-0.881778-3.413333 0.853333-4.181333 3.043555-5.461334l119.466667-68.920888c32.938667-19.000889 65.934222-37.944889 98.787556-57.088 2.872889-1.649778 4.551111-1.450667 7.168 0.483555 17.180444 12.686222 36.067556 15.644444 55.808 7.395556 20.280889-8.533333 32.568889-24.035556 35.214222-46.108445 3.128889-26.168889-10.467556-49.379556-34.360889-59.363555-3.242667-1.365333-3.754667-3.072-3.754667-6.115556l0.056889-63.260444v-63.232c0-41.870222 0.056889-83.712-0.056889-125.582223 0-3.299556 0.654222-5.034667 4.039111-6.428444a56.376889 56.376889 0 0 0 34.503112-56.746667c-2.275556-28.302222-25.287111-48.810667-48.867556-51.996444a56.604444 56.604444 0 0 0-43.036444 11.52c-2.446222 1.820444-3.982222 1.706667-6.371556 0.341333a175771.818667 175771.818667 0 0 0-219.050667-126.464c-2.275556-1.308444-3.015111-2.389333-2.56-5.262222A57.258667 57.258667 0 0 0 516.835556 85.333333z m37.518222 102.456889c2.588444-2.048 4.266667-1.706667 6.741333-0.284445 40.675556 23.580444 81.408 47.075556 122.112 70.570667l95.573333 55.125333c2.076444 1.194667 3.896889 2.076444 3.328 5.12-5.347556 29.297778 13.568 53.219556 34.986667 62.122667 3.356444 1.422222 4.408889 2.986667 4.408889 6.627555-0.113778 83.228444-0.113778 166.485333 0 249.742223 0 3.640889-0.853333 5.404444-4.551111 6.968889-25.628444 10.638222-39.253333 34.958222-34.872889 61.923555 0.540444 3.299556-1.251556 4.209778-3.470222 5.489778-72.448 41.813333-144.867556 83.626667-217.258667 125.496889-2.730667 1.564444-4.465778 1.706667-7.111111-0.398222a55.808 55.808 0 0 0-69.518222-0.142223c-2.787556 2.161778-4.551111 2.275556-7.480889 0.568889a110284.231111 110284.231111 0 0 0-218.254222-125.952c-2.730667-1.592889-3.384889-3.271111-2.958223-6.229333a57.173333 57.173333 0 0 0-34.986666-60.871111c-2.816-1.137778-3.84-2.360889-3.84-5.518222 0.113778-84.024889 0.113778-168.021333 0-252.017778 0-3.128889 0.938667-4.437333 3.783111-5.632a56.206222 56.206222 0 0 0 32.455111-34.133334c3.384889-9.386667 4.266667-19.029333 2.417778-29.411555-0.369778-2.275556 2.190222-2.56 3.697778-3.413333 72.590222-42.012444 145.208889-83.911111 217.770666-125.952 2.673778-1.536 4.408889-1.678222 7.054222 0.369777a56.035556 56.035556 0 0 0 69.973334-0.170666z" fill="#18304E" p-id="3721"></path><path d="M497.720889 661.589333c-14.648889 1.479111-28.984889 4.266667-43.207111 7.936-3.413333 0.853333-4.352 1.877333-2.901334 5.717334 7.793778 20.366222 16.839111 39.964444 30.776889 56.917333 5.262222 6.4 11.178667 12.145778 19.2 16.896v-14.392889c0-23.125333-0.028444-46.279111 0.085334-69.404444 0-3.128889-0.398222-4.039111-3.982223-3.697778z m39.338667 3.697778l-0.028445 23.438222v60.302223c7.509333-4.181333 13.084444-9.500444 18.119111-15.416889 15.075556-17.692444 24.547556-38.4 32.540445-59.960889 0.711111-1.962667 0.568889-2.759111-1.792-3.470222a262.542222 262.542222 0 0 0-46.222223-8.732445c-3.697778-0.398222-2.588444 2.190222-2.616888 3.868445z m-122.339556 19.285333a237.112889 237.112889 0 0 0-38.428444 22.869334c21.048889 15.559111 43.804444 26.965333 69.603555 35.271111a257.621333 257.621333 0 0 1-27.989333-56.604445c-0.654222-1.735111-1.137778-2.531556-3.185778-1.536z m207.445333 0.056889c-2.844444 0.995556-2.986667 6.200889-4.295111 9.557334a252.700444 252.700444 0 0 1-24.888889 48.412444 239.075556 239.075556 0 0 0 69.319111-35.100444 202.808889 202.808889 0 0 0-29.980444-18.631111c-3.328-1.735111-7.054222-5.319111-10.154667-4.238223zM281.799111 529.664c-3.043556 0-3.896889 0.711111-3.584 3.84a244.053333 244.053333 0 0 0 68.494222 148.053333c1.877333 1.905778 2.929778 2.076444 5.12 0.398223 16.099556-12.288 33.28-22.755556 51.797334-30.947556 2.56-1.137778 2.844444-2.417778 2.275555-4.835556-5.688889-22.556444-9.358222-45.482667-11.690666-68.579555a834.275556 834.275556 0 0 1-2.901334-44.003556c-0.170667-3.356444-1.137778-3.953778-4.209778-3.925333-17.493333 0.142222-34.958222 0.085333-52.423111 0.056889-17.635556 0-35.271111 0.085333-52.906666-0.056889z m370.232889 0c-3.214222-0.028444-4.522667 0.540444-4.636444 4.096a637.639111 637.639111 0 0 1-3.043556 45.368889 517.660444 517.660444 0 0 1-11.463111 67.242667c-0.568889 2.417778-0.369778 3.498667 1.905778 4.551111a260.124444 260.124444 0 0 1 52.138666 31.175111c1.991111 1.564444 3.157333 1.308444 4.892445-0.483556a240.156444 240.156444 0 0 0 65.479111-126.577778c1.336889-7.253333 2.360889-14.506667 2.958222-21.816888 0.227556-3.072-0.625778-3.555556-3.413333-3.555556-17.607111 0.113778-35.242667 0.056889-52.849778 0.056889-17.351111 0-34.645333 0.085333-51.968-0.056889z m-110.990222 0c-3.242667-0.028444-4.124444 0.938667-4.067556 4.096 0.142222 14.876444 0.056889 29.752889 0.056889 44.600889 0 14.734222 0.056889 29.44-0.056889 44.145778 0 2.616889 0.455111 3.612444 3.413334 3.84 18.574222 1.592889 36.977778 4.494222 54.897777 9.898666 2.645333 0.824889 3.413333 0.227556 4.067556-2.616889 5.347556-22.812444 8.874667-45.880889 10.837333-69.205333 0.881778-10.382222 1.649778-20.764444 1.934222-31.175111 0.085333-2.872889-0.625778-3.584-3.498666-3.584-22.528 0.113778-45.056 0.142222-67.584 0z m-110.478222 0c-3.612444-0.056889-4.209778 0.967111-4.039112 4.408889 1.024 21.589333 2.759111 43.064889 6.087112 64.426667 1.848889 11.918222 4.209778 23.722667 6.826666 35.498666 0.625778 2.730667 1.820444 2.844444 4.039111 2.190222a256.284444 256.284444 0 0 1 53.987556-9.671111c3.868444-0.341333 4.238222-1.763556 4.209778-4.920889-0.142222-14.563556-0.056889-29.127111-0.056889-43.690666 0-14.734222-0.113778-29.44 0.056889-44.145778 0.028444-3.128889-0.654222-4.124444-3.982223-4.096-22.385778 0.142222-44.771556 0.142222-67.128888 0z m164.551111-141.511111a259.015111 259.015111 0 0 1-55.352889 9.813333c-3.271111 0.227556-2.730667 2.076444-2.730667 3.982222V446.577778c0 14.563556 0.056889 29.127111-0.085333 43.662222-0.028444 3.242667 0.512 4.494222 4.181333 4.465778 22.385778-0.199111 44.743111-0.113778 67.128889-0.085334 2.104889 0 4.039111 0.483556 3.925333-3.100444a512.768 512.768 0 0 0-12.828444-100.778667c-0.711111-3.043556-1.763556-3.299556-4.266667-2.56z m-248.775111-44.999111c-33.820444 35.157333-55.608889 76.515556-64.711112 124.586666-1.479111 7.651556-2.190222 15.416889-3.413333 23.096889-0.483556 3.157333 0.568889 3.811556 3.584 3.811556 17.635556-0.142222 35.242667-0.056889 52.849778-0.085333 17.180444 0 34.332444-0.085333 51.484444 0.085333 3.726222 0.056889 5.091556-0.455111 5.233778-4.778667 1.422222-37.347556 5.262222-74.410667 14.392889-110.734222 0.739556-2.986667 0.426667-4.636444-2.929778-6.115556a254.72 254.72 0 0 1-50.574222-30.293333c-2.503111-1.934222-3.754667-1.792-5.916444 0.426667z m92.785777 48.355555a554.695111 554.695111 0 0 0-12.686222 99.953778c-0.085333 2.389333 0.512 3.185778 2.986667 3.157333 23.125333-0.085333 46.279111-0.113778 69.404444 0 3.356444 0.056889 2.787556-1.877333 2.787556-3.783111v-44.600889-44.600888c0-2.190222 0.028444-3.498667-2.958222-3.697778a256.170667 256.170667 0 0 1-54.499556-9.557334c-3.555556-1.052444-4.352 0.113778-5.034667 3.128889z m247.694223-49.180444a264.903111 264.903111 0 0 1-51.740445 31.032889c-1.934222 0.910222-2.986667 1.564444-2.275555 4.352 8.675556 35.925333 13.283556 72.419556 14.421333 109.368889 0.199111 6.684444 0.341333 7.395556 5.546667 7.480889h51.399111c17.322667 0 34.616889-0.056889 51.939555 0.056888 3.100444 0.028444 4.465778-0.113778 4.096-4.067555-4.352-47.672889-21.532444-90.168889-50.887111-127.886222a258.247111 258.247111 0 0 0-17.607111-19.996445c-1.792-1.877333-2.958222-1.820444-4.892444-0.341333z m-185.201778-66.929778c-7.395556 4.096-12.885333 9.386667-17.834667 15.160889-15.217778 17.806222-24.775111 38.712889-32.796444 60.472889-0.597333 1.649778-0.654222 2.474667 1.507555 3.128889 15.303111 4.494222 30.919111 7.111111 46.734222 8.817778 3.413333 0.341333 2.332444-2.076444 2.332445-3.584l0.056889-27.591112V275.399111z m35.413333-0.142222v71.253333c0 4.608 0.085333 9.187556-0.056889 13.795556-0.056889 2.275556 0.853333 2.844444 3.015111 2.616889a262.257778 262.257778 0 0 0 45.795556-8.704c2.019556-0.597333 2.787556-1.194667 1.991111-3.384889-8.248889-22.101333-18.005333-43.377778-33.735111-61.383111a67.128889 67.128889 0 0 0-17.009778-14.222223z m-91.477333 6.912c-16.952889 3.697778-50.204444 20.48-69.205334 34.702222 5.347556 4.266667 11.036444 7.736889 16.725334 11.235556 6.855111 4.266667 14.051556 7.879111 21.276444 11.491555 1.934222 0.967111 2.787556 0.881778 3.555556-1.336889 3.441778-9.756444 7.452444-19.342222 11.946666-28.643555 4.522667-9.329778 9.614222-18.346667 15.701334-27.448889z m147.825778 0.284444c11.776 17.464889 20.366222 36.266667 27.505777 55.751111 0.711111 1.991111 1.365333 2.332444 3.242667 1.422223 13.198222-6.371556 25.884444-13.624889 37.717333-22.357334-11.946667-11.662222-51.427556-31.459556-68.465777-34.816z" fill="#1CD2A9" p-id="3722"></path></svg>