<?xml version="1.0" standalone="no"?><!DOCTYPE svg PUBLIC "-//W3C//DTD SVG 1.1//EN" "http://www.w3.org/Graphics/SVG/1.1/DTD/svg11.dtd"><svg t="1653911216874" class="icon" viewBox="0 0 1024 1024" version="1.1" xmlns="http://www.w3.org/2000/svg" p-id="3649" xmlns:xlink="http://www.w3.org/1999/xlink" width="200" height="200"><defs><style type="text/css">@font-face { font-family: feedback-iconfont; src: url("//at.alicdn.com/t/font_1031158_u69w8yhxdu.woff2?t=1630033759944") format("woff2"), url("//at.alicdn.com/t/font_1031158_u69w8yhxdu.woff?t=1630033759944") format("woff"), url("//at.alicdn.com/t/font_1031158_u69w8yhxdu.ttf?t=1630033759944") format("truetype"); }
@font-face { font-family: feedback-iconfont; src: url("//at.alicdn.com/t/font_1031158_u69w8yhxdu.woff2?t=1630033759944") format("woff2"), url("//at.alicdn.com/t/font_1031158_u69w8yhxdu.woff?t=1630033759944") format("woff"), url("//at.alicdn.com/t/font_1031158_u69w8yhxdu.ttf?t=1630033759944") format("truetype"); }
@font-face { font-family: feedback-iconfont; src: url("//at.alicdn.com/t/font_1031158_1uhr8ri0pk5.eot?#iefix") format("embedded-opentype"), url("//at.alicdn.com/t/font_1031158_1uhr8ri0pk5.woff2") format("woff2"), url("//at.alicdn.com/t/font_1031158_1uhr8ri0pk5.woff") format("woff"), url("//at.alicdn.com/t/font_1031158_1uhr8ri0pk5.ttf") format("truetype"), url("//at.alicdn.com/t/font_1031158_1uhr8ri0pk5.svg#iconfont") format("svg"); }
@font-face { font-family: feedback-iconfont; src: url("//at.alicdn.com/t/font_1031158_1uhr8ri0pk5.eot?#iefix") format("embedded-opentype"), url("//at.alicdn.com/t/font_1031158_1uhr8ri0pk5.woff2") format("woff2"), url("//at.alicdn.com/t/font_1031158_1uhr8ri0pk5.woff") format("woff"), url("//at.alicdn.com/t/font_1031158_1uhr8ri0pk5.ttf") format("truetype"), url("//at.alicdn.com/t/font_1031158_1uhr8ri0pk5.svg#iconfont") format("svg"); }
</style></defs><path d="M512 512m-512 0a512 512 0 1 0 1024 0 512 512 0 1 0-1024 0Z" fill="#213850" p-id="3650"></path><path d="M743.424 468.210526a12.611368 12.611368 0 0 0-0.377263-2.209684v-0.431158l-0.215579-1.158737c-3.718737-18.189474-15.791158-29.938526-30.773895-29.938526h-2.479158c-25.6 0-46.322526-20.830316-46.322526-46.322526 0-5.874526 2.748632-14.255158 3.907368-17.192421 7.275789-16.976842-0.485053-36.271158-18.432-46.106948l-56.454736-31.959579-1.077895-0.377263c-4.203789-1.347368-9.081263-2.964211-14.551579-2.96421a43.115789 43.115789 0 0 0-28.806737 11.829894c-8.892632 8.784842-26.947368 21.881263-37.672421 21.881264-10.698105 0-28.806737-13.042526-37.699368-21.881264a41.337263 41.337263 0 0 0-28.77979-11.856842 44.193684 44.193684 0 0 0-14.578526 2.991158l-0.943158 0.377263-59.230316 32.067369-0.350316 0.188631c-14.362947 9.000421-20.210526 29.642105-12.907789 45.999158l0.107789 0.215579 0.10779 0.215579c1.158737 2.586947 4.742737 11.317895 4.742737 18.944 0 25.6-20.857263 46.322526-46.322527 46.322526h-2.479158c-15.683368 0-27.405474 11.587368-30.773894 30.181053l-0.215579 1.024v0.377263c0 0.538947-0.215579 1.266526-0.377263 2.209684-1.320421 7.949474-4.473263 26.677895-4.473264 41.984 0 15.333053 3.098947 34.061474 4.473264 42.010948a12.611368 12.611368 0 0 0 0.377263 2.209684v0.431158l0.215579 1.158737c3.718737 18.189474 15.791158 29.938526 30.773894 29.938526h1.266527c25.6 0 46.322526 20.830316 46.322526 46.322526 0 5.874526-2.748632 14.255158-3.907368 17.192421-7.006316 15.952842-0.350316 36.432842 15.090526 46.753685l0.458105 0.215579 55.781053 31.043368 1.050947 0.377263c4.203789 1.347368 9.000421 2.964211 14.470737 2.964211 11.695158 0 22.204632-4.446316 28.779789-11.829895 0.646737-0.458105 1.266526-1.077895 2.021053-1.724632 6.736842-5.901474 24.818526-21.477053 36.783158-21.477052 8.892632 0 23.794526 9.323789 38.804211 24.306526 7.545263 7.491368 18.054737 11.856842 28.779789 11.856842 7.275789 0 12.611368-1.994105 18.728421-5.01221l0.215579-0.10779 57.209263-31.609263 0.215579-0.215579c14.362947-9.000421 20.210526-29.642105 12.880842-45.999158l-0.107789-0.215579-0.10779-0.215579c-0.107789-0.053895-4.581053-9.350737-3.718737-17.731368l0.10779-0.538947v-0.538948c0-25.546105 20.830316-46.295579 46.295579-46.295579h2.640842c15.683368 0 27.432421-11.587368 30.800842-30.154105l0.188632-1.050947v-0.377264l0.377263-1.886315c1.347368-7.733895 4.527158-25.788632 4.527158-42.307369 0.107789-15.279158-2.991158-33.953684-4.365474-41.903158z m-231.585684 117.059369a73.242947 73.242947 0 1 1-0.026948-146.512842 73.242947 73.242947 0 0 1 0.026948 146.512842z" fill="#A7C7D6" p-id="3651"></path></svg>