<?xml version="1.0" standalone="no"?><!DOCTYPE svg PUBLIC "-//W3C//DTD SVG 1.1//EN" "http://www.w3.org/Graphics/SVG/1.1/DTD/svg11.dtd"><svg t="1653635510995" class="icon" viewBox="0 0 1024 1024" version="1.1" xmlns="http://www.w3.org/2000/svg" p-id="3260" xmlns:xlink="http://www.w3.org/1999/xlink" width="200" height="200"><defs><style type="text/css">@font-face { font-family: feedback-iconfont; src: url("//at.alicdn.com/t/font_1031158_u69w8yhxdu.woff2?t=1630033759944") format("woff2"), url("//at.alicdn.com/t/font_1031158_u69w8yhxdu.woff?t=1630033759944") format("woff"), url("//at.alicdn.com/t/font_1031158_u69w8yhxdu.ttf?t=1630033759944") format("truetype"); }
@font-face { font-family: feedback-iconfont; src: url("//at.alicdn.com/t/font_1031158_u69w8yhxdu.woff2?t=1630033759944") format("woff2"), url("//at.alicdn.com/t/font_1031158_u69w8yhxdu.woff?t=1630033759944") format("woff"), url("//at.alicdn.com/t/font_1031158_u69w8yhxdu.ttf?t=1630033759944") format("truetype"); }
@font-face { font-family: feedback-iconfont; src: url("//at.alicdn.com/t/font_1031158_1uhr8ri0pk5.eot?#iefix") format("embedded-opentype"), url("//at.alicdn.com/t/font_1031158_1uhr8ri0pk5.woff2") format("woff2"), url("//at.alicdn.com/t/font_1031158_1uhr8ri0pk5.woff") format("woff"), url("//at.alicdn.com/t/font_1031158_1uhr8ri0pk5.ttf") format("truetype"), url("//at.alicdn.com/t/font_1031158_1uhr8ri0pk5.svg#iconfont") format("svg"); }
@font-face { font-family: feedback-iconfont; src: url("//at.alicdn.com/t/font_1031158_1uhr8ri0pk5.eot?#iefix") format("embedded-opentype"), url("//at.alicdn.com/t/font_1031158_1uhr8ri0pk5.woff2") format("woff2"), url("//at.alicdn.com/t/font_1031158_1uhr8ri0pk5.woff") format("woff"), url("//at.alicdn.com/t/font_1031158_1uhr8ri0pk5.ttf") format("truetype"), url("//at.alicdn.com/t/font_1031158_1uhr8ri0pk5.svg#iconfont") format("svg"); }
</style></defs><path d="M513.6896 1021.312c-68.608 0-135.296-13.5168-197.9904-40.0128a506.4448 506.4448 0 0 1-161.6896-109.0048 506.4448 506.4448 0 0 1-109.0048-161.6896 505.8048 505.8048 0 0 1-40.0128-198.016c0-68.6848 13.5168-135.296 40.0128-197.9904 25.6-60.5952 62.2848-114.9952 109.0048-161.6896a506.4448 506.4448 0 0 1 161.6896-109.0048A505.8048 505.8048 0 0 1 513.6896 3.8912c68.7104 0 135.3216 13.5168 198.016 40.0128 60.5952 25.6 114.9952 62.2848 161.6896 109.0048a506.4448 506.4448 0 0 1 109.0048 161.6896 505.8048 505.8048 0 0 1 40.0128 197.9904c0 68.7104-13.5168 135.3216-40.0128 198.016a506.4448 506.4448 0 0 1-109.0048 161.6896 506.4448 506.4448 0 0 1-161.6896 109.0048 504.7552 504.7552 0 0 1-198.016 40.0128z m0-969.216c-253.9776 0-460.5952 206.592-460.5952 460.5952s206.592 460.6208 460.5952 460.6208S974.336 766.72 974.336 512.6912c0-254.0032-206.592-460.5952-460.6208-460.5952z m0.4096 860.1088l-0.1024-48c14.6944 0 29.5936-1.024 44.1088-2.816l5.9904 47.616c-16.384 2.2016-33.28 3.2-49.9968 3.2z m-49.9968-2.9952a408.064 408.064 0 0 1-49.3056-9.3184l11.8016-46.4896c14.208 3.584 28.8 6.4 43.392 8.192l-5.888 47.616z m149.2992-9.4976l-12.0064-46.5152a341.76 341.76 0 0 0 41.9072-13.696l17.6896 44.5952c-15.3856 6.1952-31.3856 11.392-47.616 15.616z m-246.4-15.2064a399.104 399.104 0 0 1-45.4144-21.2992l23.1168-42.112c12.9024 7.1168 26.2912 13.4144 39.8848 18.816l-17.5872 44.5952z m339.5072-21.8112l-23.2192-41.984c12.8-7.1168 25.3184-15.104 37.2224-23.7056l28.288 38.784c-13.4912 9.8048-27.6992 18.9184-42.2912 26.9056z m-427.3152-26.496c-13.4912-9.8048-26.496-20.48-38.6816-31.8976l32.768-34.9952c10.7264 9.984 22.2208 19.5072 34.0224 28.0832l-28.1088 38.8096z m508.2112-32.4096l-32.896-34.9952a353.024 353.024 0 0 0 30.208-32.2048l36.992 30.6176c-10.7008 12.8-22.2208 25.1904-34.304 36.608zM206.208 767.7952c-10.7008-12.8-20.608-26.496-29.6192-40.4992l40.4992-25.8048a337.92 337.92 0 0 0 26.0096 35.6096l-36.8896 30.72z m644.992-41.216l-40.4992-25.6768c7.9104-12.3904 15.0016-25.3952 21.2992-38.7072l43.392 20.4032c-7.168 15.104-15.2832 29.9008-24.192 44.0064zM152.3968 683.4176a414.976 414.976 0 0 1-18.5856-46.592l45.568-14.8992c4.5312 13.9008 10.0096 27.6992 16.3328 41.0112l-43.3152 20.48z m741.4016-47.3856l-45.696-14.7968c4.5056-13.9008 8.192-28.3136 10.9056-42.7008l47.1808 8.8832c-3.072 16.384-7.296 32.7168-12.3904 48.6144zM121.2928 588.2112a413.2352 413.2352 0 0 1-6.2976-49.8176l47.8976-2.9952c0.896 14.6944 2.816 29.3888 5.504 43.8016l-47.104 9.0112zM912.4096 537.6l-47.8976-2.8928c0.384-7.2192 0.6912-14.592 0.6912-21.9136 0-7.3984-0.2048-14.8992-0.6912-22.272l47.872-3.0208c0.512 8.3968 0.8192 16.896 0.8192 25.2928 0 8.192-0.3072 16.6144-0.7936 24.8064zM162.7904 491.1872l-47.872-2.8928c0.9728-16.6912 3.072-33.3824 6.0928-49.792l47.1808 8.9088c-2.688 14.3872-4.48 29.184-5.376 43.776z m696.2176-44.4928a330.24 330.24 0 0 0-11.008-42.7008l45.5936-14.7968c5.1968 15.8976 9.3184 32.2048 12.5184 48.6144l-47.104 8.8832zM179.0976 404.736l-45.696-14.72c5.12-15.872 11.2896-31.5904 18.4064-46.6944l43.4944 20.4032a329.5232 329.5232 0 0 0-16.2048 41.0112z m652.6976-41.728a345.9072 345.9072 0 0 0-21.2992-38.5792l40.4992-25.8048c9.0112 14.08 17.1008 28.8 24.2176 43.904l-43.4176 20.48zM216.4992 324.9152l-40.4992-25.7024a402.944 402.944 0 0 1 29.3888-40.576l37.0176 30.4896a378.624 378.624 0 0 0-25.9072 35.7888z m568.0128-36.1984a367.5392 367.5392 0 0 0-30.208-32.1792l32.896-35.0208c12.2112 11.4176 23.7056 23.7056 34.304 36.5056l-36.992 30.72z m-511.9232-31.7952L239.6928 222.0032c12.1088-11.392 25.088-22.1952 38.6048-32l28.3136 38.8096c-11.904 8.576-23.296 18.0992-34.0224 28.0832z m447.7184-28.5952a361.5232 361.5232 0 0 0-37.2992-23.7056l23.1936-41.984c14.592 7.9872 28.8 17.1008 42.2912 26.88l-28.1856 38.8096z m-376.6016-23.296l-23.1936-41.984c14.592-8.1152 29.7984-15.3088 45.312-21.504l17.7664 44.5952c-13.568 5.376-26.9824 11.776-39.8848 18.8928z m299.392-19.2a342.784 342.784 0 0 0-41.984-13.5936l11.8784-46.5152c16.2048 4.096 32.2048 9.3952 47.7952 15.5136l-17.664 44.5952z m-217.6-13.4144l-12.0064-46.4896a408.576 408.576 0 0 1 49.3056-9.4976l6.0928 47.616c-14.6944 1.8688-29.184 4.6848-43.392 8.3712z m132.3008-8.3968a358.8608 358.8608 0 0 0-44.1088-2.688h-0.768l-0.128-48h0.896c16.8192 0 33.6128 0.9984 50.0992 3.072l-5.9904 47.616z m-44.1088 857.3184c-68.608 0-135.296-13.5168-197.9904-40.0128a506.4448 506.4448 0 0 1-161.6896-109.0048 506.4448 506.4448 0 0 1-109.0048-161.6896 505.8048 505.8048 0 0 1-40.0128-198.016c0-68.6848 13.5168-135.296 40.0128-197.9904 25.6-60.5952 62.2848-114.9952 109.0048-161.6896a506.4448 506.4448 0 0 1 161.6896-109.0048A505.8048 505.8048 0 0 1 513.6896 3.8912c68.7104 0 135.3216 13.5168 198.016 40.0128 60.5952 25.6 114.9952 62.2848 161.6896 109.0048a506.4448 506.4448 0 0 1 109.0048 161.6896 505.8048 505.8048 0 0 1 40.0128 197.9904c0 68.7104-13.5168 135.3216-40.0128 198.016a506.4448 506.4448 0 0 1-109.0048 161.6896 506.4448 506.4448 0 0 1-161.6896 109.0048 504.7552 504.7552 0 0 1-198.016 40.0128z m0-969.216c-253.9776 0-460.5952 206.592-460.5952 460.5952s206.592 460.6208 460.5952 460.6208S974.336 766.72 974.336 512.6912c0-254.0032-206.592-460.5952-460.6208-460.5952z m0.4096 860.1088l-0.1024-48c14.6944 0 29.5936-1.024 44.1088-2.816l5.9904 47.616c-16.384 2.2016-33.28 3.2-49.9968 3.2z m-49.9968-2.9952a408.064 408.064 0 0 1-49.3056-9.3184l11.8016-46.4896c14.208 3.584 28.8 6.4 43.392 8.192l-5.888 47.616z m149.2992-9.4976l-12.0064-46.5152a341.76 341.76 0 0 0 41.9072-13.696l17.6896 44.5952c-15.3856 6.1952-31.3856 11.392-47.616 15.616z m-246.4-15.2064a399.104 399.104 0 0 1-45.4144-21.2992l23.1168-42.112c12.9024 7.1168 26.2912 13.4144 39.8848 18.816l-17.5872 44.5952z m339.5072-21.8112l-23.2192-41.984c12.8-7.1168 25.3184-15.104 37.2224-23.7056l28.288 38.784c-13.4912 9.8048-27.6992 18.9184-42.2912 26.9056z m-427.3152-26.496c-13.4912-9.8048-26.496-20.48-38.6816-31.8976l32.768-34.9952c10.7264 9.984 22.2208 19.5072 34.0224 28.0832l-28.1088 38.8096z m508.2112-32.4096l-32.896-34.9952a353.024 353.024 0 0 0 30.208-32.2048l36.992 30.6176c-10.7008 12.8-22.2208 25.1904-34.304 36.608zM206.208 767.7952c-10.7008-12.8-20.608-26.496-29.6192-40.4992l40.4992-25.8048a337.92 337.92 0 0 0 26.0096 35.6096l-36.8896 30.72z m644.992-41.216l-40.4992-25.6768c7.9104-12.3904 15.0016-25.3952 21.2992-38.7072l43.392 20.4032c-7.168 15.104-15.2832 29.9008-24.192 44.0064zM152.3968 683.4176a414.976 414.976 0 0 1-18.5856-46.592l45.568-14.8992c4.5312 13.9008 10.0096 27.6992 16.3328 41.0112l-43.3152 20.48z m741.4016-47.3856l-45.696-14.7968c4.5056-13.9008 8.192-28.3136 10.9056-42.7008l47.1808 8.8832c-3.072 16.384-7.296 32.7168-12.3904 48.6144zM121.2928 588.2112a413.2352 413.2352 0 0 1-6.2976-49.8176l47.8976-2.9952c0.896 14.6944 2.816 29.3888 5.504 43.8016l-47.104 9.0112zM912.4096 537.6l-47.8976-2.8928c0.384-7.2192 0.6912-14.592 0.6912-21.9136 0-7.3984-0.2048-14.8992-0.6912-22.272l47.872-3.0208c0.512 8.3968 0.8192 16.896 0.8192 25.2928 0 8.192-0.3072 16.6144-0.7936 24.8064zM162.7904 491.1872l-47.872-2.8928c0.9728-16.6912 3.072-33.3824 6.0928-49.792l47.1808 8.9088c-2.688 14.3872-4.48 29.184-5.376 43.776z m696.2176-44.4928a330.24 330.24 0 0 0-11.008-42.7008l45.5936-14.7968c5.1968 15.8976 9.3184 32.2048 12.5184 48.6144l-47.104 8.8832zM179.0976 404.736l-45.696-14.72c5.12-15.872 11.2896-31.5904 18.4064-46.6944l43.4944 20.4032a329.5232 329.5232 0 0 0-16.2048 41.0112z m652.6976-41.728a345.9072 345.9072 0 0 0-21.2992-38.5792l40.4992-25.8048c9.0112 14.08 17.1008 28.8 24.2176 43.904l-43.4176 20.48zM216.4992 324.9152l-40.4992-25.7024a402.944 402.944 0 0 1 29.3888-40.576l37.0176 30.4896a378.624 378.624 0 0 0-25.9072 35.7888z m568.0128-36.1984a367.5392 367.5392 0 0 0-30.208-32.1792l32.896-35.0208c12.2112 11.4176 23.7056 23.7056 34.304 36.5056l-36.992 30.72z m-511.9232-31.7952L239.6928 222.0032c12.1088-11.392 25.088-22.1952 38.6048-32l28.3136 38.8096c-11.904 8.576-23.296 18.0992-34.0224 28.0832z m447.7184-28.5952a361.5232 361.5232 0 0 0-37.2992-23.7056l23.1936-41.984c14.592 7.9872 28.8 17.1008 42.2912 26.88l-28.1856 38.8096z m-376.6016-23.296l-23.1936-41.984c14.592-8.1152 29.7984-15.3088 45.312-21.504l17.7664 44.5952c-13.568 5.376-26.9824 11.776-39.8848 18.8928z m299.392-19.2a342.784 342.784 0 0 0-41.984-13.5936l11.8784-46.5152c16.2048 4.096 32.2048 9.3952 47.7952 15.5136l-17.664 44.5952z m-217.6-13.4144l-12.0064-46.4896a408.576 408.576 0 0 1 49.3056-9.4976l6.0928 47.616c-14.6944 1.8688-29.184 4.6848-43.392 8.3712z m132.3008-8.3968a358.8608 358.8608 0 0 0-44.1088-2.688h-0.768l-0.128-48h0.896c16.8192 0 33.6128 0.9984 50.0992 3.072l-5.9904 47.616z" fill="#18304E" p-id="3261"></path><path d="M663.296 284.5952c10.7008 0 20.7104 4.1984 28.416 11.904 7.68 7.5008 11.8784 17.6896 11.8784 28.416l0.2048 375.8848c0 1.2032 0 2.0992-0.2048 3.3024a40.3968 40.3968 0 0 1-40.2944 36.7872H364.032a40.3968 40.3968 0 0 1-38.6048-28.3904 16.0512 16.0512 0 0 1-1.8944-7.5008V325.12c0-22.272 18.176-40.4992 40.4992-40.4992z m-63.8976 226.9952c-2.5088-2.5856-6.1952-2.5856-8.8064 0l-111.0016 111.0016c-0.6912 1.024-1.2032 1.7152-1.3824 2.6112l-11.904 37.1968c-1.408 4.8896 2.9952 9.4976 7.8848 7.9104l37.2224-11.904a4.992 4.992 0 0 0 2.7904-1.408l111.0016-111.0016a6.7328 6.7328 0 0 0 0-8.9856z m-105.6-17.5872h-94.72c-15.5904 0-28.3904 12.8-28.3904 28.416 0 15.5904 12.8 28.3904 28.416 28.3904h94.72c15.5648 0 28.3648-12.8 28.3648-28.416 0-15.616-12.8-28.416-28.3904-28.416z m144.2048-12.9024a11.904 11.904 0 0 0-17.2032 0l-9.984 9.8048c-2.6112 2.5856-2.6112 6.2976 0 9.088l25.6 25.6c2.56 2.6112 6.272 2.6112 9.088 0l5.2992-5.376a18.688 18.688 0 0 0 0-26.3168z m-14.8992-101.504h-228.4032c-16 0-28.9024 12.9024-28.416 28.416 0 15.488 12.8 28.3904 28.416 28.3904h228.4032c15.488 0 28.416-12.416 28.416-28.416 0-15.488-12.416-28.3904-28.416-28.3904z" fill="#1CD2A9" p-id="3262"></path></svg>