<?xml version="1.0" encoding="UTF-8"?>
<svg width="24px" height="24px" viewBox="0 0 24 24" version="1.1" xmlns="http://www.w3.org/2000/svg" xmlns:xlink="http://www.w3.org/1999/xlink">
    <g id="控件" stroke="none" stroke-width="1" fill="none" fill-rule="evenodd">
        <g id="编组-44" transform="translate(-295.000000, 0.000000)" fill-rule="nonzero">
            <g id="转移" transform="translate(295.000000, 0.000000)">
                <g id="菜单">
                    <rect id="矩形" fill="#000000" opacity="0" x="0" y="0" width="24" height="24"></rect>
                    <path d="M1.4472,12.1236 C1.4472,17.9590407 6.17775933,22.6896 12.0132,22.6896 C17.8486407,22.6896 22.5792,17.9590407 22.5792,12.1236 C22.5792,6.28815933 17.8486407,1.5576 12.0132,1.5576 C6.17775933,1.5576 1.4472,6.28815933 1.4472,12.1236 Z" id="路径" fill="#F4CC29"></path>
                </g>
                <g transform="translate(4.000000, 4.000000)">
                    <rect id="矩形" fill="#000000" opacity="0" x="0" y="0" width="16" height="16"></rect>
                    <path d="M8.389,1 L8.389,4.889 L1.389,4.889 L1.389,7.222 L14.612,7.222 L8.389,1 Z M7.611,15 L7.611,11.111 L14.611,11.111 L14.611,8.778 L1.389,8.778 L7.611,15 Z" id="形状" fill="#18304E"></path>
                </g>
            </g>
        </g>
    </g>
</svg>