<?xml version="1.0" encoding="UTF-8"?>
<svg width="24px" height="24px" viewBox="0 0 24 24" version="1.1" xmlns="http://www.w3.org/2000/svg" xmlns:xlink="http://www.w3.org/1999/xlink">
    <g id="控件" stroke="none" stroke-width="1" fill="none" fill-rule="evenodd">
        <g id="编组-44" transform="translate(-359.000000, 0.000000)" fill-rule="nonzero">
            <g id="滑点" transform="translate(359.000000, 0.000000)">
                <g id="菜单备份-2">
                    <rect id="矩形" fill="#000000" opacity="0" x="0" y="0" width="24" height="24"></rect>
                    <path d="M1.4472,12.1236 C1.4472,17.9590407 6.17775933,22.6896 12.0132,22.6896 C17.8486407,22.6896 22.5792,17.9590407 22.5792,12.1236 C22.5792,6.28815933 17.8486407,1.5576 12.0132,1.5576 C6.17775933,1.5576 1.4472,6.28815933 1.4472,12.1236 Z" id="路径" fill="#F4CC29"></path>
                </g>
                <g id="5972615_business_down_marketing_office_performance_icon" transform="translate(6.000000, 5.000000)" fill="#18304E">
                    <path d="M12.5666667,12.0309945 L11.7,12.0309945 L11.7,10.2976611 C11.6994508,9.81924204 11.3117524,9.43154371 10.8333333,9.43099447 L9.96666667,9.43099447 C9.48824757,9.43154371 9.10054924,9.81924204 9.1,10.2976611 L9.1,12.0309945 L7.8,12.0309945 L7.8,7.69766114 C7.79945076,7.21924204 7.41175243,6.83154371 6.93333333,6.83099447 L6.06666667,6.83099447 C5.58824757,6.83154371 5.20054924,7.21924204 5.2,7.69766114 L5.2,12.0309945 L3.9,12.0309945 L3.9,5.09766114 C3.89945076,4.61924204 3.51175243,4.23154371 3.03333333,4.23099447 L2.16666667,4.23099447 C1.68824757,4.23154371 1.30054924,4.61924204 1.3,5.09766114 L1.3,12.0309945 L0.433333333,12.0309945 C0.194009942,12.0309945 0,12.2250044 0,12.4643278 C0,12.7036512 0.194009942,12.8976611 0.433333333,12.8976611 L12.5666667,12.8976611 C12.8059901,12.8976611 13,12.7036512 13,12.4643278 C13,12.2250044 12.8059901,12.0309945 12.5666667,12.0309945 Z" id="路径"></path>
                    <path d="M9.84966667,7.36399014 L8.99082167,7.36399014 C8.69166743,7.36399014 8.449155,7.60650257 8.449155,7.9056568 C8.449155,8.20481104 8.69166743,8.44732347 8.99082167,8.44732347 L11.1574883,8.44732347 C11.3011504,8.44732347 11.4389315,8.39026885 11.5405159,8.2886844 C11.6421004,8.18709995 11.699155,8.04931891 11.699155,7.9056568 L11.699155,5.73899014 C11.699155,5.4398359 11.4566426,5.19732347 11.1574883,5.19732347 C10.8583341,5.19732347 10.6158217,5.4398359 10.6158217,5.73899014 L10.6158217,6.59825114 L4.17548733,0.157916805 C3.96386006,-0.0529185875 3.62148489,-0.0525977076 3.41025319,0.158633995 C3.19902149,0.369865698 3.19870061,0.712240867 3.409536,0.923868138 L9.84966667,7.36399014 Z" id="路径"></path>
                </g>
            </g>
        </g>
    </g>
</svg>