<?xml version="1.0" standalone="no"?><!DOCTYPE svg PUBLIC "-//W3C//DTD SVG 1.1//EN" "http://www.w3.org/Graphics/SVG/1.1/DTD/svg11.dtd"><svg t="1658732522556" class="icon" viewBox="0 0 1024 1024" version="1.1" xmlns="http://www.w3.org/2000/svg" p-id="4316" xmlns:xlink="http://www.w3.org/1999/xlink" width="200" height="200"><defs><style type="text/css">@font-face { font-family: feedback-iconfont; src: url("//at.alicdn.com/t/font_1031158_u69w8yhxdu.woff2?t=1630033759944") format("woff2"), url("//at.alicdn.com/t/font_1031158_u69w8yhxdu.woff?t=1630033759944") format("woff"), url("//at.alicdn.com/t/font_1031158_u69w8yhxdu.ttf?t=1630033759944") format("truetype"); }
@font-face { font-family: feedback-iconfont; src: url("//at.alicdn.com/t/font_1031158_u69w8yhxdu.woff2?t=1630033759944") format("woff2"), url("//at.alicdn.com/t/font_1031158_u69w8yhxdu.woff?t=1630033759944") format("woff"), url("//at.alicdn.com/t/font_1031158_u69w8yhxdu.ttf?t=1630033759944") format("truetype"); }
@font-face { font-family: feedback-iconfont; src: url("//at.alicdn.com/t/font_1031158_u69w8yhxdu.woff2?t=1630033759944") format("woff2"), url("//at.alicdn.com/t/font_1031158_u69w8yhxdu.woff?t=1630033759944") format("woff"), url("//at.alicdn.com/t/font_1031158_u69w8yhxdu.ttf?t=1630033759944") format("truetype"); }
@font-face { font-family: feedback-iconfont; src: url("//at.alicdn.com/t/font_1031158_1uhr8ri0pk5.eot?#iefix") format("embedded-opentype"), url("//at.alicdn.com/t/font_1031158_1uhr8ri0pk5.woff2") format("woff2"), url("//at.alicdn.com/t/font_1031158_1uhr8ri0pk5.woff") format("woff"), url("//at.alicdn.com/t/font_1031158_1uhr8ri0pk5.ttf") format("truetype"), url("//at.alicdn.com/t/font_1031158_1uhr8ri0pk5.svg#iconfont") format("svg"); }
@font-face { font-family: feedback-iconfont; src: url("//at.alicdn.com/t/font_1031158_1uhr8ri0pk5.eot?#iefix") format("embedded-opentype"), url("//at.alicdn.com/t/font_1031158_1uhr8ri0pk5.woff2") format("woff2"), url("//at.alicdn.com/t/font_1031158_1uhr8ri0pk5.woff") format("woff"), url("//at.alicdn.com/t/font_1031158_1uhr8ri0pk5.ttf") format("truetype"), url("//at.alicdn.com/t/font_1031158_1uhr8ri0pk5.svg#iconfont") format("svg"); }
@font-face { font-family: feedback-iconfont; src: url("//at.alicdn.com/t/font_1031158_u69w8yhxdu.woff2?t=1630033759944") format("woff2"), url("//at.alicdn.com/t/font_1031158_u69w8yhxdu.woff?t=1630033759944") format("woff"), url("//at.alicdn.com/t/font_1031158_u69w8yhxdu.ttf?t=1630033759944") format("truetype"); }
@font-face { font-family: feedback-iconfont; src: url("//at.alicdn.com/t/font_1031158_1uhr8ri0pk5.eot?#iefix") format("embedded-opentype"), url("//at.alicdn.com/t/font_1031158_1uhr8ri0pk5.woff2") format("woff2"), url("//at.alicdn.com/t/font_1031158_1uhr8ri0pk5.woff") format("woff"), url("//at.alicdn.com/t/font_1031158_1uhr8ri0pk5.ttf") format("truetype"), url("//at.alicdn.com/t/font_1031158_1uhr8ri0pk5.svg#iconfont") format("svg"); }
@font-face { font-family: feedback-iconfont; src: url("//at.alicdn.com/t/font_1031158_1uhr8ri0pk5.eot?#iefix") format("embedded-opentype"), url("//at.alicdn.com/t/font_1031158_1uhr8ri0pk5.woff2") format("woff2"), url("//at.alicdn.com/t/font_1031158_1uhr8ri0pk5.woff") format("woff"), url("//at.alicdn.com/t/font_1031158_1uhr8ri0pk5.ttf") format("truetype"), url("//at.alicdn.com/t/font_1031158_1uhr8ri0pk5.svg#iconfont") format("svg"); }
</style></defs><path d="M489.813333 441.002667a352.625778 352.625778 0 0 1-105.756444 33.564444c-17.578667 2.616889-28.529778 17.237333-25.884445 34.417778 2.588444 16.952889-7.310222 31.260444-24.234666 34.844444-12.572444 2.702222-20.935111 9.955556-23.978667 22.584889-1.820444 7.424 0.369778 14.791111 1.706667 22.072889 5.319111 29.468444 10.097778 59.079111 16.327111 88.348445 10.979556 51.712 32.711111 98.133333 71.224889 135.395555 25.6 24.775111 56.234667 39.566222 91.648 44.088889 7.082667 0.853333 14.222222 1.536 18.033778 1.251556 58.680889-0.398222 102.257778-24.234667 135.850666-67.157334 28.529778-36.465778 45.425778-78.136889 53.418667-123.619555 5.12-29.070222 10.524444-58.055111 15.985778-87.04 3.299556-17.379556-6.144-31.857778-23.779556-35.84-14.648889-3.328-23.523556-13.255111-24.803555-28.046223-0.284444-3.128889 0.426667-6.343111 0.568888-9.528888 0.796444-16.867556-9.216-29.240889-25.912888-31.715556a354.019556 354.019556 0 0 1-106.268445-33.792c-14.648889-7.281778-29.496889-7.111111-44.145778 0.170667z m-102.001777 205.710222h119.438222c1.649778 0 3.299556 0.170667 4.977778 0.256h-0.142223l-0.056889 20.110222v20.280889c0 36.010667-0.028444 72.021333 0.085334 108.032 0 3.271111-0.512 4.295111-4.152889 4.152889-13.937778-0.625778-27.306667-3.413333-39.964445-9.244445-25.6-11.776-43.320889-31.715556-57.031111-55.580444-14.620444-25.400889-23.694222-52.849778-28.501333-81.720889-1.052444-6.286222-1.024-6.257778 5.347556-6.257778z m124.757333-151.267556c1.080889-0.312889 1.792 0.341333 2.56 0.739556 28.785778 13.681778 58.595556 24.177778 89.884444 30.435555 3.242667 0.654222 3.84 2.446222 4.380445 5.034667 5.233778 25.031111 18.915556 44.288 40.504889 57.856 2.304 1.450667 3.043556 2.844444 2.56 5.404445-2.872889 15.644444-5.831111 31.260444-8.476445 46.933333-0.597333 3.669333-1.877333 4.750222-5.688889 4.721778a13201.976889 13201.976889 0 0 0-102.599111-0.085334c-7.879111 0-15.758222-0.512-23.608889 0.341334h0.142223l-0.113778-3.043556v-146.346667c0-0.682667-0.312889-1.507556 0.455111-1.991111z" fill="#1CD2A9" p-id="4317"></path><path d="M865.678222 448.910222c-1.934222 0.398222-1.365333 2.133333-1.422222 3.271111-0.938667 17.294222-3.697778 34.332444-7.623111 51.2-1.109333 4.750222 0.113778 6.684444 4.266667 8.874667 12.231111 6.456889 23.779556 13.994667 33.621333 23.893333 1.308444 1.251556 2.588444 2.56 3.811555 3.925334 13.852444 15.616 13.710222 30.577778-0.398222 46.023111-11.662222 12.743111-26.026667 21.731556-41.130666 29.639111-30.833778 16.071111-63.715556 26.624-97.194667 35.441778-2.673778 0.682667-4.010667 1.536-4.551111 4.494222-3.441778 19.171556-6.200889 38.542222-12.202667 57.173333-0.711111 2.247111 0.284444 2.616889 2.218667 2.161778 57.173333-12.856889 113.208889-28.785778 162.901333-61.383111 18.432-12.088889 34.787556-26.567111 46.222222-45.738667 19.996444-33.621333 16.554667-71.594667-8.903111-102.712889-16.213333-19.911111-36.920889-34.048-59.164444-46.165333-5.859556-3.185778-11.946667-5.973333-17.92-8.931556-0.796444-0.398222-1.621333-0.739556-2.531556-1.137777z m-708.835555 0.625778c-26.368 12.344889-51.285333 26.851556-71.566223 48.213333-13.482667 14.222222-23.324444 30.492444-26.88 50.062223a65.991111 65.991111 0 0 0-1.479111 12.430222c0.256 27.818667 10.723556 48.782222 27.591111 66.901333 20.053333 21.560889 44.856889 36.323556 71.224889 48.64 39.196444 18.289778 80.611556 29.809778 122.680889 39.168 2.446222 0.540444 3.242667 0.170667 2.417778-2.673778-5.404444-18.318222-8.248889-37.176889-11.491556-55.921777-0.483556-2.702222-1.450667-4.295111-4.551111-5.12-36.209778-9.358222-71.623111-20.906667-104.476444-39.253334-11.264-6.257778-21.959111-13.454222-31.118222-22.698666a103.025778 103.025778 0 0 1-3.128889-3.271112c-14.136889-15.587556-14.136889-30.748444 0.056889-46.364444 10.979556-12.060444 24.462222-20.707556 38.684444-28.359111 2.844444-1.536 3.640889-2.787556 2.872889-6.229333a325.006222 325.006222 0 0 1-7.736889-52.992l-0.028444-1.621334c-0.085333-1.28-0.512-2.076444-3.072-0.910222z m631.239111-126.264889c-28.387556 4.807111-56.888889 8.760889-85.532445 11.776-4.664889 0.483556-9.329778 1.251556-13.994666 1.621333-2.218667 0.170667-2.332444 0.938667-1.962667 2.844445 6.712889 33.621333 9.614222 67.527111 8.476444 101.802667a5.575111 5.575111 0 0 0 1.792 4.380444c13.169778 13.824 20.935111 30.236444 23.04 49.208889 0.199111 1.905778 1.109333 2.56 2.531556 3.271111 12.231111 5.973333 22.357333 14.449778 30.378667 25.457778 0.967111 1.308444 2.019556 2.161778 3.612444 2.417778l33.564445 4.920888c2.531556 1.052444 2.986667-1.080889 3.640888-2.958222 7.879111-22.328889 13.198222-45.226667 15.758223-68.778666a296.391111 296.391111 0 0 0-15.502223-132.465778c-1.137778-3.214222-2.503111-4.039111-5.802666-3.498667z m-557.624889 2.56a314.311111 314.311111 0 0 0-15.815111 69.688889c-4.835556 45.226667 0.682667 89.144889 15.559111 132.010667 1.080889 3.072 2.360889 3.896889 5.489778 3.384889 10.296889-1.706667 20.622222-3.185778 30.947555-4.750223a6.769778 6.769778 0 0 0 4.835556-2.844444 80.896 80.896 0 0 1 29.696-24.888889c1.962667-0.967111 2.844444-2.019556 3.128889-4.295111 2.474667-18.545778 9.813333-34.844444 22.983111-48.298667 1.450667-1.479111 1.706667-2.986667 1.678222-4.892444-0.113778-5.006222-0.028444-10.012444-0.028444-15.018667a441.742222 441.742222 0 0 1 8.248888-85.845333c0.568889-2.759111 0.170667-3.128889-2.531555-3.441778a1706.24 1706.24 0 0 1-99.498667-13.425778c-2.417778-0.398222-3.783111 0.056889-4.693333 2.616889z m188.785778 19.797333c-4.465778 21.873778-7.964444 43.804444-8.419556 66.190223 0 0.426667 0.142222 0.881778 0.284445 1.564444a257.763556 257.763556 0 0 0 53.276444-20.053333c31.459556-15.701333 63.061333-15.928889 94.663111-0.284445 16.384 8.135111 33.28 14.933333 51.000889 19.683556 2.730667 0.739556 3.356444 0.512 3.271111-2.389333-0.654222-21.902222-3.982222-43.406222-8.419555-64.796445-0.568889-2.588444-2.218667-2.389333-4.096-2.275555-19.114667 1.336889-38.229333 1.536-57.344 2.133333-32.056889 0.995556-64.085333 0.142222-96.113778-0.967111a1180.728889 1180.728889 0 0 1-24.120889-1.166222c-1.962667-0.113778-3.498667-0.085333-3.982222 2.360888z m90.538666-189.553777a615.822222 615.822222 0 0 0-62.094222 105.443555c-0.113778 0.256-0.113778 0.568889-0.284444 1.422222 43.093333 1.649778 86.072889 1.536 129.507555 0.028445a536.945778 536.945778 0 0 0-21.816889-43.292445c-12.231111-21.987556-25.884444-43.064889-40.732444-63.374222-1.621333-2.190222-2.389333-3.214222-4.551111-0.227555zM420.579556 142.222222c-60.074667 20.309333-108.487111 54.727111-147.057778 104.476445 5.404444 0.853333 10.24 1.735111 15.075555 2.304 23.153778 2.759111 46.336 5.347556 69.489778 8.163555 2.901333 0.341333 3.555556-1.109333 4.380445-3.214222a618.695111 618.695111 0 0 1 48.554666-96.625778c2.929778-4.750222 5.973333-9.443556 9.557334-15.104z m183.751111 0.284445c0.625778 2.702222 2.190222 4.295111 3.328 6.115555a619.861333 619.861333 0 0 1 53.617777 104.760889c1.336889 3.356444 2.759111 3.982222 6.257778 3.527111 17.294222-2.190222 34.645333-3.896889 51.939556-5.944889 10.040889-1.166222 20.081778-2.645333 31.089778-4.124444a303.587556 303.587556 0 0 0-146.232889-104.305778z" fill="#18304E" p-id="4318"></path></svg>