<?xml version="1.0" standalone="no"?><!DOCTYPE svg PUBLIC "-//W3C//DTD SVG 1.1//EN" "http://www.w3.org/Graphics/SVG/1.1/DTD/svg11.dtd"><svg t="1653540523338" class="icon" viewBox="0 0 1024 1024" version="1.1" xmlns="http://www.w3.org/2000/svg" p-id="3652" xmlns:xlink="http://www.w3.org/1999/xlink" width="200" height="200"><defs><style type="text/css">@font-face { font-family: feedback-iconfont; src: url("//at.alicdn.com/t/font_1031158_u69w8yhxdu.woff2?t=1630033759944") format("woff2"), url("//at.alicdn.com/t/font_1031158_u69w8yhxdu.woff?t=1630033759944") format("woff"), url("//at.alicdn.com/t/font_1031158_u69w8yhxdu.ttf?t=1630033759944") format("truetype"); }
@font-face { font-family: feedback-iconfont; src: url("//at.alicdn.com/t/font_1031158_u69w8yhxdu.woff2?t=1630033759944") format("woff2"), url("//at.alicdn.com/t/font_1031158_u69w8yhxdu.woff?t=1630033759944") format("woff"), url("//at.alicdn.com/t/font_1031158_u69w8yhxdu.ttf?t=1630033759944") format("truetype"); }
@font-face { font-family: feedback-iconfont; src: url("//at.alicdn.com/t/font_1031158_1uhr8ri0pk5.eot?#iefix") format("embedded-opentype"), url("//at.alicdn.com/t/font_1031158_1uhr8ri0pk5.woff2") format("woff2"), url("//at.alicdn.com/t/font_1031158_1uhr8ri0pk5.woff") format("woff"), url("//at.alicdn.com/t/font_1031158_1uhr8ri0pk5.ttf") format("truetype"), url("//at.alicdn.com/t/font_1031158_1uhr8ri0pk5.svg#iconfont") format("svg"); }
@font-face { font-family: feedback-iconfont; src: url("//at.alicdn.com/t/font_1031158_1uhr8ri0pk5.eot?#iefix") format("embedded-opentype"), url("//at.alicdn.com/t/font_1031158_1uhr8ri0pk5.woff2") format("woff2"), url("//at.alicdn.com/t/font_1031158_1uhr8ri0pk5.woff") format("woff"), url("//at.alicdn.com/t/font_1031158_1uhr8ri0pk5.ttf") format("truetype"), url("//at.alicdn.com/t/font_1031158_1uhr8ri0pk5.svg#iconfont") format("svg"); }
</style></defs><path d="M58.368 513.109333c0 249.002667 201.813333 450.816 450.816 450.816 248.96 0 450.816-201.813333 450.816-450.816 0-248.96-201.813333-450.816-450.816-450.816-248.96 0-450.816 201.856-450.816 450.816z" fill="#F4CC29" p-id="3653"></path><path d="M261.717333 651.776c19.370667 42.368 95.573333 74.026667 186.794667 74.026667 12.928 0 25.514667-0.725333 37.674667-1.92 14.165333 14.08 30.72 25.557333 48.938666 33.749333a356.309333 356.309333 0 0 1-86.613333 10.368c-105.898667 0-191.701333-42.581333-191.701333-95.104 0-7.253333 1.792-14.293333 4.906666-21.12z m349.781334-200.618667a155.690667 155.690667 0 1 1 0 311.381334 155.690667 155.690667 0 0 1 0-311.381334zM261.717333 589.226667c19.285333 42.154667 94.933333 73.685333 185.728 73.984 5.418667 14.976 12.8 29.013333 22.101334 41.642666a393.557333 393.557333 0 0 1-21.034667 0.554667c-105.898667 0-191.701333-42.581333-191.701333-95.061333 0-7.253333 1.792-14.336 4.906666-21.12z m304.341334-77.653334a3.626667 3.626667 0 0 0-2.986667 6.357334c10.496 8.192 24.149333 24.064 28.032 52.309333 1.450667 11.52 2.133333 23.04 2.133333 34.645333a3.712 3.712 0 0 1-3.669333 3.712h-31.274667a3.626667 3.626667 0 0 0-2.730666 5.973334l57.941333 66.346666a3.626667 3.626667 0 0 0 5.504 0l57.898667-66.304a3.626667 3.626667 0 0 0-2.688-6.016h-28.458667a3.541333 3.541333 0 0 1-3.584-3.114666c-2.304-15.488-15.104-83.84-76.117333-93.909334z m-304.341334 15.061334c18.602667 40.661333 89.557333 71.338667 175.872 73.770666-0.085333 2.133333-0.256 4.266667-0.256 6.4 0 12.373333 1.450667 24.32 3.968 35.84-102.528-1.877333-184.490667-43.562667-184.490666-94.890666 0-7.253333 1.792-14.336 4.906666-21.12z m0-62.549334c19.370667 42.325333 95.573333 73.984 186.794667 73.984l3.882667-0.085333c-6.058667 13.184-10.410667 27.306667-12.8 42.069333-101.717333-2.304-182.784-43.861333-182.784-94.848 0-7.253333 1.792-14.336 4.906666-21.12z m0-62.592c19.370667 42.368 95.573333 73.984 186.794667 73.984 21.12 0 41.386667-1.706667 60.416-4.864a166.485333 166.485333 0 0 0-45.226667 46.72 394.368 394.368 0 0 1-15.189333 0.384c-105.898667 0-191.701333-42.581333-191.701333-95.104 0-7.253333 1.792-14.336 4.906666-21.12zM448.512 256c105.813333 0 191.658667 42.581333 191.658667 95.104s-85.802667 95.104-191.658667 95.104c-105.898667 0-191.701333-42.581333-191.701333-95.146667C256.810667 298.624 342.570667 256 448.512 256z m186.752 145.493333c3.114667 6.826667 4.906667 13.866667 4.906667 21.12 0 7.509333-1.92 14.805333-5.248 21.76a165.333333 165.333333 0 0 0-32-3.157333c-2.730667 0-5.418667 0.298667-8.106667 0.426667 19.370667-11.392 33.578667-25.045333 40.448-40.106667z m-166.912-129.109333h-39.466667v18.346667c-33.92 1.365333-67.968 11.52-66.304 34.816-1.152 31.701333 123.093333 34.773333 119.125334 52.352-1.749333 10.026667-20.565333 12.885333-48.426667 11.264a493.354667 493.354667 0 0 1-61.653333-8.277334l-11.861334 23.04c22.357333 3.712 44.117333 6.741333 67.712 8.405334v17.493333h39.509334V412.16c55.893333-2.005333 66.218667-22.101333 69.12-31.317333 3.285333-10.666667-0.128-20.906667-16.597334-28.885334a130.005333 130.005333 0 0 0-31.872-10.112c-18.133333-3.797333-72.832-4.608-72.832-20.864 1.024-9.386667 29.909333-9.386667 43.690667-9.386666 21.290667 0 38.997333 2.986667 56.405333 6.272l10.922667-21.717334a267.306667 267.306667 0 0 0-57.472-6.272v-17.493333z" fill="#18304E" p-id="3654"></path></svg>